<?xml version="1.0" encoding="UTF-8" standalone="no"?>
<!-- Created with Inkscape (http://www.inkscape.org/) -->

<svg
   xmlns:dc="http://purl.org/dc/elements/1.1/"
   xmlns:cc="http://creativecommons.org/ns#"
   xmlns:rdf="http://www.w3.org/1999/02/22-rdf-syntax-ns#"
   xmlns:svg="http://www.w3.org/2000/svg"
   xmlns="http://www.w3.org/2000/svg"
   xmlns:sodipodi="http://sodipodi.sourceforge.net/DTD/sodipodi-0.dtd"
   xmlns:inkscape="http://www.inkscape.org/namespaces/inkscape"
   width="1652.5"
   height="1945"
   id="svg2"
   version="1.1"
   inkscape:version="0.48.2 r9819"
   sodipodi:docname="BOBA.svg">
  <defs
     id="defs4">
    <clipPath
       id="clipPath3135"
       clipPathUnits="userSpaceOnUse">
      <path
         id="path3137"
         d="M 0,792 612,792 612,0 0,0 0,792 z"
         inkscape:connector-curvature="0" />
    </clipPath>
    <clipPath
       id="clipPath3123"
       clipPathUnits="userSpaceOnUse">
      <path
         id="path3125"
         d="M 0,792 612,792 612,0 0,0 0,792 z"
         inkscape:connector-curvature="0" />
    </clipPath>
    <clipPath
       id="clipPath3061"
       clipPathUnits="userSpaceOnUse">
      <path
         id="path3063"
         d="M 0,792 612,792 612,0 0,0 0,792 z"
         inkscape:connector-curvature="0" />
    </clipPath>
    <clipPath
       id="clipPath3123-4"
       clipPathUnits="userSpaceOnUse">
      <path
         inkscape:connector-curvature="0"
         id="path3125-0"
         d="M 0,792 612,792 612,0 0,0 0,792 z" />
    </clipPath>
    <clipPath
       id="clipPath3123-4-8"
       clipPathUnits="userSpaceOnUse">
      <path
         inkscape:connector-curvature="0"
         id="path3125-0-2"
         d="M 0,792 612,792 612,0 0,0 0,792 z" />
    </clipPath>
    <clipPath
       id="clipPath3123-45"
       clipPathUnits="userSpaceOnUse">
      <path
         inkscape:connector-curvature="0"
         id="path3125-5"
         d="M 0,792 612,792 612,0 0,0 0,792 z" />
    </clipPath>
    <clipPath
       id="clipPath3123-4-8-7"
       clipPathUnits="userSpaceOnUse">
      <path
         inkscape:connector-curvature="0"
         id="path3125-0-2-6"
         d="M 0,792 612,792 612,0 0,0 0,792 z" />
    </clipPath>
    <clipPath
       id="clipPath3123-45-1"
       clipPathUnits="userSpaceOnUse">
      <path
         inkscape:connector-curvature="0"
         id="path3125-5-4"
         d="M 0,792 612,792 612,0 0,0 0,792 z" />
    </clipPath>
    <clipPath
       id="clipPath3123-4-2"
       clipPathUnits="userSpaceOnUse">
      <path
         inkscape:connector-curvature="0"
         id="path3125-0-3"
         d="M 0,792 612,792 612,0 0,0 0,792 z" />
    </clipPath>
    <clipPath
       id="clipPath3123-2"
       clipPathUnits="userSpaceOnUse">
      <path
         inkscape:connector-curvature="0"
         id="path3125-2"
         d="M 0,792 612,792 612,0 0,0 0,792 z" />
    </clipPath>
    <clipPath
       id="clipPath3123-4-4"
       clipPathUnits="userSpaceOnUse">
      <path
         inkscape:connector-curvature="0"
         id="path3125-0-31"
         d="M 0,792 612,792 612,0 0,0 0,792 z" />
    </clipPath>
    <clipPath
       id="clipPath3123-23"
       clipPathUnits="userSpaceOnUse">
      <path
         inkscape:connector-curvature="0"
         id="path3125-3"
         d="M 0,792 612,792 612,0 0,0 0,792 z" />
    </clipPath>
    <clipPath
       id="clipPath3123-4-27"
       clipPathUnits="userSpaceOnUse">
      <path
         inkscape:connector-curvature="0"
         id="path3125-0-7"
         d="M 0,792 612,792 612,0 0,0 0,792 z" />
    </clipPath>
    <clipPath
       id="clipPath3123-9"
       clipPathUnits="userSpaceOnUse">
      <path
         inkscape:connector-curvature="0"
         id="path3125-31"
         d="M 0,792 612,792 612,0 0,0 0,792 z" />
    </clipPath>
  </defs>
  <sodipodi:namedview
     id="base"
     pagecolor="#ffffff"
     bordercolor="#666666"
     borderopacity="1.0"
     inkscape:pageopacity="0.0"
     inkscape:pageshadow="2"
     inkscape:zoom="0.98994948"
     inkscape:cx="559.74749"
     inkscape:cy="568.12807"
     inkscape:document-units="px"
     inkscape:current-layer="g3121"
     showgrid="false"
     width="1652.5px"
     inkscape:window-width="1280"
     inkscape:window-height="972"
     inkscape:window-x="-8"
     inkscape:window-y="-8"
     inkscape:window-maximized="1" />
  <metadata
     id="metadata7">
    <rdf:RDF>
      <cc:Work
         rdf:about="">
        <dc:format>image/svg+xml</dc:format>
        <dc:type
           rdf:resource="http://purl.org/dc/dcmitype/StillImage" />
        <dc:title />
      </cc:Work>
    </rdf:RDF>
  </metadata>
  <g
     inkscape:label="Layer 1"
     inkscape:groupmode="layer"
     id="layer1"
     transform="translate(0,892.63782)">
    <g
       transform="matrix(1.25,0,0,-1.25,-7.66375,990.92968)"
       inkscape:label="snowflake-Boba_Fett"
       id="g3055">
      <g
         id="g3057" />
      <g
         id="g3430"
         style="fill:none;stroke:#000000">
        <g
           id="g3119"
           style="fill:none;stroke:#000000">
          <g
             id="g3121"
             clip-path="url(#clipPath3123)"
             style="fill:none;stroke:#000000">
            <path
               style="color:#000000;fill:none;stroke:#000000;stroke-width:1.25;stroke-linecap:butt;stroke-linejoin:miter;stroke-miterlimit:4;stroke-opacity:1;stroke-dasharray:none;stroke-dashoffset:0;marker:none;visibility:visible;display:inline;overflow:visible;enable-background:accumulate"
               d="M 475.78125 930.5625 L 475.78125 930.625 C 451.44941 931.32869 406.47929 945.56574 389.4375 1006.125 L 377.34375 1006.125 L 377.34375 957.25 L 391.71875 957.25 L 391.71875 947.875 L 402.96875 947.875 L 402.96875 932.5625 C 402.96875 932.5625 378.27 937.99625 366.5 942.375 C 354.73 946.7525 366.5 950.1875 366.5 950.1875 L 366.5 1029.4062 C 366.5 1030.6562 366.6875 1031.9062 368.25 1032.375 C 369.8125 1032.8437 376.53125 1034.9375 376.53125 1034.9375 L 376.53125 1041.2812 C 376.53125 1042.2188 376.765 1044.0938 378.40625 1044.0938 C 380.04625 1044.0938 383.89125 1043.9226 386.625 1046.0312 C 386.625 1048.1412 384.90625 1091.1251 388.65625 1109.0938 C 389.59375 1113.1562 391.3125 1114.2501 394.28125 1115.8125 C 397.25 1117.3751 411.78125 1124.5625 411.78125 1124.5625 L 395.3125 1139.75 L 465.3125 1261.0312 C 450.4017 1263.1784 436.70674 1269.0979 425.25 1277.8125 L 389.15625 1143.1875 L 366.78125 1144.0938 C 366.78125 1144.0938 371.97439 1128.7354 372.96875 1125.5312 C 373.96312 1122.3272 374.39721 1120.3481 372.1875 1116.8125 C 362.13334 1101.4551 330.52325 1072.2732 329.03125 1070.7812 C 329.4732 1067.357 332.30909 1064.7534 333.46875 1063.5938 C 334.62929 1062.4331 333.475 1060.9441 332.8125 1060.2812 L 328.34375 1055.7812 C 328.34375 1055.7812 331.6016 1049.5613 332.375 1048.125 C 333.1484 1046.6886 332.38375 1045.6964 331.5 1044.8125 L 275.46875 988.78125 C 275.46875 988.78125 281.3555 978.02271 269.9375 983.25 C 258.5186 988.4764 237.25 1002.0938 237.25 1002.0938 L 248.0625 1012.9062 L 256.03125 1004.9688 L 262.65625 1011.5938 L 272.8125 1001.4375 L 307.375 1036 L 298.84375 1044.5312 C 243.99175 1013.7711 202.08905 1035.5135 184.375 1052.2188 C 183.89199 1052.6741 183.44684 1053.1157 183 1053.5625 L 183.03125 1053.5938 C 166.32363 1071.2966 144.60354 1113.159 175.375 1168.0312 L 166.8125 1176.5938 L 132.25 1142.0312 L 142.4375 1131.875 L 135.8125 1125.25 L 143.75 1117.2812 L 132.9375 1106.4688 C 132.9375 1106.4688 119.2889 1127.7687 114.0625 1139.1875 C 108.83521 1150.6056 119.59375 1144.7188 119.59375 1144.7188 L 175.625 1200.7188 C 176.50889 1201.6027 177.53244 1202.3671 178.96875 1201.5938 C 180.40506 1200.8203 186.625 1197.5312 186.625 1197.5312 L 191.09375 1202.0312 C 191.75666 1202.6942 193.24571 1203.8481 194.40625 1202.6875 C 195.56591 1201.5279 198.16959 1198.6919 201.59375 1198.25 C 203.08575 1199.7419 232.26754 1231.3521 247.625 1241.4062 C 251.16054 1243.616 253.17094 1243.1819 256.375 1242.1875 C 259.57909 1241.1932 274.90625 1236 274.90625 1236 L 274 1258.375 L 408.625 1294.4688 C 400.37214 1305.3248 394.59267 1318.185 392.1875 1332.1875 L 272.5625 1263.125 L 257.375 1279.5938 C 257.375 1279.5938 250.1875 1265.0624 248.625 1262.0938 C 247.06251 1259.125 245.96874 1257.4062 241.90625 1256.4688 C 223.9375 1252.7188 180.95374 1254.4375 178.84375 1254.4375 C 176.735 1251.7038 176.90624 1247.8587 176.90625 1246.2188 C 176.90624 1244.5775 175.03125 1244.3438 174.09375 1244.3438 L 167.75 1244.3438 C 167.75 1244.3438 165.65625 1237.625 165.1875 1236.0625 C 164.71875 1234.5001 163.46874 1234.3438 162.21875 1234.3438 L 83 1234.3438 C 83 1234.3438 79.564988 1222.5737 75.1875 1234.3438 C 70.80875 1246.1137 65.375 1270.7812 65.375 1270.7812 L 80.6875 1270.7812 L 80.6875 1259.5312 L 90.0625 1259.5312 L 90.0625 1245.1562 L 138.9375 1245.1562 L 138.9375 1257.25 C 78.400603 1274.2855 64.150875 1319.2557 63.4375 1343.5938 C 63.418 1344.2574 63.40625 1344.8993 63.40625 1345.5312 L 63.46875 1345.5312 C 64.172438 1369.863 78.409552 1414.8331 138.96875 1431.875 L 138.96875 1443.9688 L 90.09375 1443.9688 L 90.09375 1429.5938 L 80.71875 1429.5938 L 80.71875 1418.3438 L 65.40625 1418.3438 C 65.40625 1418.3438 70.840013 1443.0426 75.21875 1454.8125 C 79.596262 1466.5825 83.03125 1454.8125 83.03125 1454.8125 L 162.25 1454.8125 C 163.49999 1454.8126 164.75 1454.6251 165.21875 1453.0625 C 165.68749 1451.5001 167.78125 1444.7812 167.78125 1444.7812 L 174.125 1444.7812 C 175.0625 1444.7812 176.93751 1444.5476 176.9375 1442.9062 C 176.93751 1441.2662 176.76624 1437.4213 178.875 1434.6875 C 180.98499 1434.6875 223.96875 1436.4062 241.9375 1432.6562 C 246.00001 1431.7188 247.09376 1430.0001 248.65625 1427.0312 C 250.21876 1424.0626 257.40625 1409.5312 257.40625 1409.5312 L 272.59375 1426 L 391.53125 1357.3438 C 393.27491 1372.0346 398.70856 1385.5917 406.84375 1397.0938 L 276.03125 1432.1562 L 276.9375 1454.5312 C 276.9375 1454.5312 261.57909 1449.3382 258.375 1448.3438 C 255.17091 1447.3493 253.19179 1446.9152 249.65625 1449.125 C 234.29876 1459.1791 205.117 1490.7893 203.625 1492.2812 C 200.20084 1491.8393 197.59716 1489.0035 196.4375 1487.8438 C 195.27695 1486.6833 193.78791 1487.8374 193.125 1488.5 L 188.65625 1493 C 188.65625 1493 182.40508 1489.711 180.96875 1488.9375 C 179.53245 1488.1641 178.54011 1488.9287 177.65625 1489.8125 L 121.65625 1545.8438 C 121.65625 1545.8438 110.89771 1539.9569 116.125 1551.375 C 121.3514 1562.7939 134.9375 1584.0625 134.9375 1584.0625 L 145.78125 1573.25 L 137.8125 1565.2812 L 144.4375 1558.6562 L 134.28125 1548.5 L 168.84375 1513.9375 L 177.40625 1522.5 C 146.64612 1577.3519 168.35733 1619.2235 185.0625 1636.9375 C 185.51794 1637.4206 185.95941 1637.8657 186.40625 1638.3125 L 186.46875 1638.2812 C 204.17154 1654.9889 246.03405 1676.709 300.90625 1645.9375 L 309.4375 1654.5 L 274.875 1689.0625 L 264.71875 1678.875 L 258.09375 1685.5312 L 250.125 1677.5625 L 239.3125 1688.4062 C 239.3125 1688.4062 260.61234 1702.0235 272.03125 1707.25 C 283.44924 1712.4772 277.5625 1701.7188 277.5625 1701.7188 L 333.59375 1645.6875 C 334.47764 1644.8037 335.2109 1643.8113 334.4375 1642.375 C 333.66409 1640.9386 330.40625 1634.6875 330.40625 1634.6875 L 334.875 1630.2188 C 335.53794 1629.5558 336.69176 1628.0667 335.53125 1626.9062 C 334.37156 1625.7466 331.5357 1623.143 331.09375 1619.7188 C 332.58576 1618.2268 364.19585 1589.045 374.25 1573.6875 C 376.45973 1570.152 376.02564 1568.1729 375.03125 1564.9688 C 374.03689 1561.7647 368.84375 1546.4062 368.84375 1546.4062 L 391.21875 1547.3125 L 426.1875 1416.875 C 437.41835 1425.1808 450.72966 1430.8662 465.1875 1432.9688 L 395.65625 1553.4375 L 412.125 1568.625 C 412.125 1568.625 397.59375 1575.8124 394.625 1577.375 C 391.65625 1578.9374 389.9375 1580.0312 389 1584.0938 C 385.25 1602.0625 386.96875 1645.0463 386.96875 1647.1562 C 384.235 1649.2649 380.39 1649.0938 378.75 1649.0938 C 377.10875 1649.0938 376.875 1650.9688 376.875 1651.9062 L 376.875 1658.25 C 376.875 1658.25 370.15625 1660.3438 368.59375 1660.8125 C 367.03125 1661.2813 366.875 1662.5312 366.875 1663.7812 L 366.875 1743 C 366.875 1743 355.105 1746.435 366.875 1750.8125 C 378.645 1755.1913 403.3125 1760.625 403.3125 1760.625 L 403.3125 1745.3125 L 392.0625 1745.3125 L 392.0625 1735.9375 L 377.6875 1735.9375 L 377.6875 1687.0625 L 389.78125 1687.0625 C 406.81676 1747.5994 451.78692 1761.8492 476.125 1762.5625 C 476.78859 1762.5825 477.43055 1762.5938 478.0625 1762.5938 L 478.0625 1762.5312 C 502.39432 1761.8277 547.36446 1747.5905 564.40625 1687.0312 L 576.5 1687.0312 L 576.5 1735.9062 L 562.125 1735.9062 L 562.125 1745.2812 L 550.875 1745.2812 L 550.875 1760.5938 C 550.875 1760.5938 575.57375 1755.16 587.34375 1750.7812 C 599.11375 1746.4037 587.34375 1742.9688 587.34375 1742.9688 L 587.34375 1663.75 C 587.34375 1662.5 587.15625 1661.25 585.59375 1660.7812 C 584.03125 1660.3124 577.3125 1658.2188 577.3125 1658.2188 L 577.3125 1651.875 C 577.3125 1650.9374 577.07875 1649.0625 575.4375 1649.0625 C 573.7975 1649.0625 569.9525 1649.2337 567.21875 1647.125 C 567.21875 1645.015 568.9375 1602.0313 565.1875 1584.0625 C 564.25 1580.0001 562.53125 1578.9062 559.5625 1577.3438 C 556.59375 1575.7812 542.0625 1568.5938 542.0625 1568.5938 L 558.53125 1553.4062 L 489.09375 1433.125 C 503.91766 1431.202 517.55984 1425.5458 529.0625 1417.125 L 564.65625 1549.9688 L 587.0625 1549.0625 C 587.0625 1549.0625 581.86935 1564.421 580.875 1567.625 C 579.88064 1570.8291 579.44654 1572.8082 581.65625 1576.3438 C 591.71044 1591.7012 623.3205 1620.883 624.8125 1622.375 C 624.37055 1625.7991 621.50341 1628.4029 620.34375 1629.5625 C 619.18321 1630.7232 620.36837 1632.2121 621.03125 1632.875 L 625.5 1637.3438 C 625.5 1637.3438 622.24215 1643.5948 621.46875 1645.0312 C 620.69535 1646.4674 621.46 1647.4598 622.34375 1648.3438 L 678.375 1704.3438 C 678.375 1704.3438 672.457 1715.1022 683.875 1709.875 C 695.2939 1704.6486 716.59375 1691.0625 716.59375 1691.0625 L 705.75 1680.2188 L 697.8125 1688.1875 L 691.1875 1681.5312 L 681 1691.7188 L 646.4375 1657.1562 L 655 1648.5938 C 709.852 1679.3538 751.72345 1657.6427 769.4375 1640.9375 C 769.92051 1640.482 770.39691 1640.0406 770.84375 1639.5938 L 770.78125 1639.5312 C 787.48889 1621.8285 809.24021 1579.966 778.46875 1525.0938 L 787 1516.5625 L 821.5625 1551.0938 L 811.40625 1561.2812 L 818.03125 1567.9062 L 810.09375 1575.8438 L 820.90625 1586.6875 C 820.90625 1586.6875 834.5236 1565.3877 839.75 1553.9688 C 844.97729 1542.5507 834.21875 1548.4375 834.21875 1548.4375 L 778.21875 1492.4062 C 777.33485 1491.5223 776.31131 1490.7892 774.875 1491.5625 C 773.43867 1492.3359 767.21875 1495.5938 767.21875 1495.5938 L 762.71875 1491.125 C 762.05584 1490.4621 760.5668 1489.2771 759.40625 1490.4375 C 758.2466 1491.5972 755.64292 1494.4643 752.21875 1494.9062 C 750.72675 1493.4143 721.57623 1461.8042 706.21875 1451.75 C 702.68321 1449.5403 700.67282 1449.9743 697.46875 1450.9688 C 694.26469 1451.9632 678.90625 1457.1562 678.90625 1457.1562 L 679.8125 1434.7812 L 547.21875 1399.2188 C 555.3187 1388.4686 560.97523 1375.7793 563.375 1361.9688 L 681.25 1430 L 696.4375 1413.5312 C 696.4375 1413.5312 703.625 1428.0624 705.1875 1431.0312 C 706.74999 1434 707.84376 1435.7188 711.90625 1436.6562 C 729.875 1440.4062 772.85876 1438.6875 774.96875 1438.6875 C 777.0775 1441.4213 776.90626 1445.2662 776.90625 1446.9062 C 776.90626 1448.5474 778.78125 1448.7812 779.71875 1448.7812 L 786.0625 1448.7812 C 786.0625 1448.7812 788.15625 1455.5001 788.625 1457.0625 C 789.09375 1458.6251 790.34376 1458.7812 791.59375 1458.7812 L 870.8125 1458.7812 C 870.8125 1458.7812 874.24751 1470.5512 878.625 1458.7812 C 883.00375 1447.0113 888.4375 1422.3438 888.4375 1422.3438 L 873.125 1422.3438 L 873.125 1433.5938 L 863.75 1433.5938 L 863.75 1447.9688 L 814.875 1447.9688 L 814.875 1435.875 C 875.4119 1418.8395 889.66163 1373.8692 890.375 1349.5312 C 890.3945 1348.8676 890.40625 1348.2256 890.40625 1347.5938 L 890.34375 1347.5938 C 889.64006 1323.2618 875.40295 1278.2917 814.84375 1261.25 L 814.84375 1249.1562 L 863.71875 1249.1562 L 863.71875 1263.5312 L 873.09375 1263.5312 L 873.09375 1274.7812 L 888.40625 1274.7812 C 888.40625 1274.7812 882.97249 1250.0825 878.59375 1238.3125 C 874.21624 1226.5425 870.78125 1238.3125 870.78125 1238.3125 L 791.5625 1238.3125 C 790.31251 1238.3125 789.0625 1238.5001 788.59375 1240.0625 C 788.12501 1241.6251 786.03125 1248.3438 786.03125 1248.3438 L 779.6875 1248.3438 C 778.75 1248.3438 776.87499 1248.5774 776.875 1250.2188 C 776.87499 1251.8588 777.04626 1255.7038 774.9375 1258.4375 C 772.82751 1258.4375 729.84375 1256.7188 711.875 1260.4688 C 707.81249 1261.4062 706.71874 1263.1251 705.15625 1266.0938 C 703.59374 1269.0625 696.40625 1283.5938 696.40625 1283.5938 L 681.21875 1267.125 L 563.84375 1334.875 C 561.8231 1320.3958 556.20972 1307.0568 547.96875 1295.7812 L 677.78125 1261 L 676.875 1238.5938 C 676.875 1238.5938 692.23341 1243.7869 695.4375 1244.7812 C 698.64159 1245.7755 700.65196 1246.241 704.1875 1244.0312 C 719.54499 1233.9771 748.72675 1202.3669 750.21875 1200.875 C 753.64291 1201.317 756.21534 1204.1528 757.375 1205.3125 C 758.53555 1206.473 760.05584 1205.288 760.71875 1204.625 L 765.1875 1200.1562 C 765.1875 1200.1562 771.40744 1203.4142 772.84375 1204.1875 C 774.28005 1204.9609 775.30364 1204.1962 776.1875 1203.3125 L 832.1875 1147.3125 C 832.1875 1147.3125 842.94604 1153.1993 837.71875 1141.7812 C 832.49235 1130.3622 818.875 1109.0625 818.875 1109.0625 L 808.0625 1119.9062 L 816 1127.8438 L 809.375 1134.4688 L 819.5625 1144.6562 L 785 1179.2188 L 776.4375 1170.6562 C 807.19764 1115.8042 785.48644 1073.9328 768.78125 1056.2188 C 768.32581 1055.7358 767.88434 1055.2594 767.4375 1054.8125 L 767.375 1054.875 C 749.67221 1038.1673 707.8097 1016.4161 652.9375 1047.1875 L 644.375 1038.6562 L 678.9375 1004.0938 L 689.125 1014.25 L 695.75 1007.625 L 703.6875 1015.5625 L 714.53125 1004.75 C 714.53125 1004.75 693.20016 991.13265 681.78125 985.90625 C 670.36326 980.67896 676.28125 991.4375 676.28125 991.4375 L 620.25 1047.4375 C 619.36611 1048.3214 618.63285 1049.3449 619.40625 1050.7812 C 620.17966 1052.2175 623.4375 1058.4375 623.4375 1058.4375 L 618.9375 1062.9375 C 618.27456 1063.6005 617.12074 1065.0894 618.28125 1066.25 C 619.44094 1067.4096 622.2768 1070.0134 622.71875 1073.4375 C 621.22674 1074.9295 589.61665 1104.1113 579.5625 1119.4688 C 577.35277 1123.0044 577.81811 1124.9835 578.8125 1128.1875 C 579.80686 1131.3917 585 1146.75 585 1146.75 L 562.59375 1145.8438 L 527.75 1275.9062 C 516.33172 1267.8692 502.89355 1262.509 488.34375 1260.75 L 558.1875 1139.7188 L 541.71875 1124.5312 C 541.71875 1124.5312 556.25 1117.3438 559.21875 1115.7812 C 562.1875 1114.2188 563.90625 1113.1251 564.84375 1109.0625 C 568.59375 1091.0938 566.875 1048.11 566.875 1046 C 569.60875 1043.8912 573.45375 1044.0625 575.09375 1044.0625 C 576.735 1044.0625 576.96875 1042.1874 576.96875 1041.25 L 576.96875 1034.9062 C 576.96875 1034.9062 583.6875 1032.8125 585.25 1032.3438 C 586.8125 1031.8751 586.96875 1030.625 586.96875 1029.375 L 586.96875 950.15625 C 586.96875 950.15625 598.73875 946.72125 586.96875 942.34375 C 575.19875 937.965 550.53125 932.53125 550.53125 932.53125 L 550.53125 947.84375 L 561.78125 947.84375 L 561.78125 957.21875 L 576.15625 957.21875 L 576.15625 1006.0938 L 564.0625 1006.0938 C 547.02697 945.55684 502.05681 931.30714 477.71875 930.59375 C 477.05516 930.57425 476.41319 930.5625 475.78125 930.5625 z M 547.71875 980.5625 C 549.90625 982.75 553.365 992.03125 555.84375 1001.7188 C 553.23875 1002.135 549.6875 1002.4375 547.1875 1003.0625 C 546.04125 999.105 541.05125 985.72875 539.28125 981.875 C 541.95375 980.9725 544.59375 980.5625 547.71875 980.5625 z M 405.78125 980.59375 C 408.90625 980.59375 411.515 981.00375 414.1875 981.90625 C 412.4175 985.76 407.45875 999.13625 406.3125 1003.0938 C 403.8125 1002.4688 400.26125 1002.1663 397.65625 1001.75 C 400.135 992.0625 403.59375 982.78125 405.78125 980.59375 z M 532.59375 982.53125 L 532.59375 982.96875 C 532.59375 982.96875 538.34375 995.885 540.53125 1005.1562 L 529.375 1005.1562 C 529.375 1005.1562 526.14625 990.65625 521.875 982.84375 C 525.95125 982.545 532.59375 982.53125 532.59375 982.53125 z M 420.875 982.5625 C 420.875 982.5625 427.54875 982.57625 431.625 982.875 C 427.35375 990.6875 424.125 1005.1875 424.125 1005.1875 L 412.96875 1005.1875 C 415.15625 995.9163 420.875 983 420.875 983 L 420.875 982.5625 z M 485.40625 996.28125 L 509.78125 1004.3125 C 509.78125 1004.3125 505.09499 1008.3638 485.40625 1011.5938 L 485.40625 996.28125 z M 468.0625 996.3125 L 468.0625 1011.625 C 448.37375 1008.395 443.6875 1004.3438 443.6875 1004.3438 L 468.0625 996.3125 z M 555.9375 1022.1875 C 557.34375 1029.3751 556.77125 1034.5312 555.9375 1038.2812 C 540.9375 1044.5312 490.9375 1054.5312 490.9375 1054.5312 L 487.34375 1156.0938 L 475.78125 1156.0938 L 475.78125 1156.125 L 466.15625 1156.125 L 462.5625 1054.5625 C 462.5625 1054.5625 412.5625 1044.5625 397.5625 1038.3125 C 396.72875 1034.5625 396.15625 1029.4062 397.5625 1022.2188 C 401.53556 1023.7468 447.45864 1031.3823 475.78125 1031.7188 C 475.80187 1031.7189 475.82325 1031.7185 475.84375 1031.7188 C 476.46024 1031.7262 477.11969 1031.75 477.71875 1031.75 L 477.71875 1031.6875 C 506.04225 1031.3494 551.96495 1023.7154 555.9375 1022.1875 z M 269.21875 1038.0312 C 272.31235 1038.0312 281.33466 1042.1526 289.9375 1047.25 C 288.38984 1049.3863 286.07584 1052.1341 284.75 1054.3438 C 281.14111 1052.356 268.1641 1046.411 264.1875 1044.9375 C 265.43909 1042.4096 267.00905 1040.2409 269.21875 1038.0312 z M 682.5625 1040.6875 C 684.7722 1042.8972 686.3109 1045.0346 687.5625 1047.5625 C 683.5859 1049.036 670.6089 1055.0121 667 1057 C 665.67419 1054.7902 663.39141 1052.0426 661.84375 1049.9062 C 670.44656 1044.8089 679.4689 1040.6875 682.5625 1040.6875 z M 556.5625 1046.5 C 556.5625 1051.8124 559.375 1104.3225 559.375 1105.1562 C 559.375 1105.9901 558.96875 1110.25 552.71875 1110.25 C 552.71875 1105.875 549.365 1083.8963 539.46875 1075.5625 C 529.57375 1067.2301 517.30125 1066.7087 508.03125 1074.625 C 511.5725 1068.7925 521.25 1058.6874 534.0625 1054 C 546.875 1049.3124 554.27125 1046.5 556.5625 1046.5 z M 396.9375 1046.5312 C 399.22875 1046.5312 406.625 1049.3438 419.4375 1054.0312 C 432.25 1058.7188 441.9275 1068.8238 445.46875 1074.6562 C 436.19875 1066.7401 423.895 1067.2613 414 1075.5938 C 404.10375 1083.9276 400.78125 1105.9062 400.78125 1110.2812 C 394.53125 1110.2812 394.125 1106.0213 394.125 1105.1875 C 394.125 1104.3538 396.9375 1051.8438 396.9375 1046.5312 z M 259.90625 1050.125 L 260.21875 1050.4375 C 260.21875 1050.4375 273.4287 1055.5223 281.53125 1060.5312 L 273.625 1068.4062 C 273.625 1068.4062 261.107 1060.4416 252.5625 1057.9375 C 255.2336 1054.844 259.90625 1050.125 259.90625 1050.125 z M 691.84375 1052.7812 C 691.84375 1052.7812 696.54766 1057.5002 699.21875 1060.5938 C 690.67425 1063.0979 678.125 1071.0625 678.125 1071.0625 L 670.25 1063.1875 C 678.35255 1058.1786 691.53125 1053.0625 691.53125 1053.0625 L 691.84375 1052.7812 z M 304.46875 1061.6562 C 310.54544 1065.7442 313.78165 1069.79 315.84375 1073.0312 C 309.65656 1088.0572 281.375 1130.5 281.375 1130.5 L 350.65625 1204.8438 L 342.46875 1213.0312 L 342.5 1213.0625 L 335.6875 1219.8438 L 261.34375 1150.5938 C 261.34375 1150.5938 218.90103 1178.8754 203.875 1185.0625 C 200.6338 1183.0005 196.58796 1179.7642 192.5 1173.6875 C 196.38991 1171.9587 234.2663 1144.8831 254.53125 1125.0938 C 254.546 1125.0794 254.54787 1125.0456 254.5625 1125.0312 C 255.00374 1124.6007 255.48265 1124.1736 255.90625 1123.75 L 255.875 1123.6875 C 275.66359 1103.4207 302.74014 1065.5457 304.46875 1061.6562 z M 647.3125 1064.3125 C 649.04135 1068.2025 676.11696 1106.0788 695.90625 1126.3438 C 695.92062 1126.3585 695.92313 1126.3916 695.9375 1126.4062 C 696.36811 1126.8475 696.8264 1127.3264 697.25 1127.75 L 697.28125 1127.6875 C 717.54813 1147.4761 755.4231 1174.5527 759.3125 1176.2812 C 755.22454 1182.3578 751.1787 1185.5942 747.9375 1187.6562 C 732.91148 1181.4691 690.46875 1153.1875 690.46875 1153.1875 L 616.125 1222.4688 L 607.9375 1214.3125 L 607.9375 1214.2812 L 601.125 1207.5 L 670.40625 1133.1562 C 670.40625 1133.1562 642.12469 1090.7447 635.9375 1075.7188 C 637.9996 1072.4776 641.2358 1068.4005 647.3125 1064.3125 z M 322.09375 1078.4062 C 325.85025 1082.1627 364.97295 1117.3167 365.5625 1117.9062 C 366.15205 1118.4958 368.88816 1121.7994 364.46875 1126.2188 C 361.37515 1123.1251 343.45306 1109.9577 330.5625 1111.0625 C 317.67371 1112.1674 308.61349 1120.4724 307.65625 1132.625 C 306.03609 1125.9967 305.75476 1111.9993 311.5 1099.625 C 317.24525 1087.2506 320.47359 1080.0264 322.09375 1078.4062 z M 629.65625 1081.0625 C 631.27644 1082.6827 634.536 1089.9068 640.28125 1102.2812 C 646.02649 1114.6557 645.71391 1128.653 644.09375 1135.2812 C 643.13651 1123.1287 634.07629 1114.7924 621.1875 1113.6875 C 608.29694 1112.5827 590.4061 1125.7814 587.3125 1128.875 C 582.8931 1124.4555 585.62919 1121.1521 586.21875 1120.5625 C 586.80829 1119.973 625.89975 1084.819 629.65625 1081.0625 z M 259.1875 1081.6562 C 259.1875 1081.6562 258.73184 1087.8566 247.09375 1104.0625 L 236.28125 1093.2188 L 259.1875 1081.6562 z M 692.5625 1084.3125 L 715.46875 1095.8438 L 704.65625 1106.6875 C 693.01815 1090.4816 692.5625 1084.3125 692.5625 1084.3125 z M 224.03125 1105.5 L 234.84375 1116.3438 C 218.63774 1127.9818 212.46875 1128.4062 212.46875 1128.4062 L 224.03125 1105.5 z M 727.75 1108.0938 L 739.3125 1131 C 739.3125 1131 733.1435 1130.5756 716.9375 1118.9375 L 727.75 1108.0938 z M 188.75 1121.7812 C 191.25404 1130.3257 199.25 1142.8438 199.25 1142.8438 L 191.34375 1150.75 C 186.33478 1142.6474 181.25 1129.4688 181.25 1129.4688 L 180.9375 1129.1562 C 180.9375 1129.1562 185.6564 1124.4524 188.75 1121.7812 z M 499.375 1122.75 C 502.08375 1128.7925 504.17625 1140.1349 529.90625 1133.4688 C 533.6125 1132.5076 503.95875 1152.9474 499.375 1155.0312 L 499.375 1122.75 z M 454.125 1122.7812 L 454.125 1155.0625 C 449.54125 1152.979 419.8875 1132.5387 423.59375 1133.5 C 449.32375 1140.1662 451.41625 1128.8238 454.125 1122.7812 z M 763.0625 1124.375 C 766.15609 1127.0461 770.84375 1131.75 770.84375 1131.75 L 770.53125 1132.0625 C 770.53125 1132.0625 765.47771 1145.2413 760.46875 1153.3438 L 752.5625 1145.4688 C 752.5625 1145.4688 760.55844 1132.9194 763.0625 1124.375 z M 175.75 1133.4062 C 177.22344 1137.3828 183.16839 1150.3598 185.15625 1153.9688 C 182.94654 1155.2946 180.2301 1157.5773 178.09375 1159.125 C 172.9964 1150.5221 168.875 1141.5311 168.875 1138.4375 C 171.0847 1136.2279 173.2221 1134.6579 175.75 1133.4062 z M 776.03125 1136 C 778.55915 1137.2515 780.72779 1138.8216 782.9375 1141.0312 C 782.93749 1144.1248 778.8161 1153.1471 773.71875 1161.75 C 771.5824 1160.2022 768.86594 1157.9195 766.65625 1156.5938 C 768.64407 1152.9849 774.55781 1139.9766 776.03125 1136 z M 364.96875 1158.5312 C 366.09082 1158.7002 360.09115 1191.1001 358.40625 1195.5938 L 335.5625 1172.7812 C 341.75058 1175.1386 351.26989 1181.6576 364.75 1158.75 C 364.841 1158.5952 364.91357 1158.523 364.96875 1158.5312 z M 586.8125 1161.1875 C 586.86775 1161.1788 586.94027 1161.2516 587.03125 1161.4062 C 600.51136 1184.3139 609.99945 1177.7949 616.1875 1175.4375 L 593.375 1198.25 C 591.68998 1193.7564 585.69044 1161.3564 586.8125 1161.1875 z M 253.375 1175.875 C 257.45739 1175.8624 260.95191 1176.2674 263.4375 1176.875 C 251.28499 1177.8322 242.97985 1186.8925 241.875 1199.7812 C 240.77014 1212.6719 253.93765 1230.5627 257.03125 1233.6562 C 252.61183 1238.0756 249.33955 1235.3708 248.75 1234.7812 C 248.16045 1234.1918 213.0065 1195.069 209.25 1191.3125 C 210.87015 1189.6924 218.09439 1186.4328 230.46875 1180.6875 C 238.20274 1177.0968 246.57104 1175.8958 253.375 1175.875 z M 698.4375 1178.4688 C 705.24146 1178.4896 713.60978 1179.7218 721.34375 1183.3125 C 733.71812 1189.0578 740.94232 1192.3174 742.5625 1193.9375 C 738.80599 1197.694 703.65205 1236.7854 703.0625 1237.375 C 702.47295 1237.9646 699.20065 1240.7007 694.78125 1236.2812 C 697.87484 1233.1878 711.04235 1215.2654 709.9375 1202.375 C 708.83265 1189.4862 700.49626 1180.4572 688.34375 1179.5 C 690.82934 1178.8924 694.35514 1178.4562 698.4375 1178.4688 z M 477.40625 1186.75 C 477.50988 1186.7538 477.61519 1186.7462 477.71875 1186.75 C 490.67241 1187.2823 502.78791 1192.9415 507.03125 1194.2812 C 511.48375 1195.6875 511.5 1197.2501 511.03125 1198.3438 C 510.5625 1199.4375 505.46875 1209.36 504.375 1211.1562 C 503.28125 1212.9538 501.9525 1212.6563 500.3125 1212.1875 C 497.12875 1211.2775 483.84375 1209.5163 482.90625 1211.4688 C 481.96875 1213.4225 483.35875 1216.0937 484.6875 1218.125 C 486.015 1220.1562 494.65625 1233.0625 494.65625 1233.0625 C 494.65625 1233.0625 488.8275 1242.6875 486.25 1247.2188 C 486.25 1237.8595 481.10369 1235.1324 477.71875 1234.4375 L 477.71875 1234.25 C 477.5471 1234.25 477.30142 1234.2986 477.09375 1234.3125 C 476.58241 1234.2387 476.14586 1234.2188 475.78125 1234.2188 L 475.78125 1234.4688 C 472.3968 1235.1528 467.25 1237.8612 467.25 1247.25 C 464.6725 1242.7187 458.84375 1233.125 458.84375 1233.125 C 458.84375 1233.125 467.485 1220.1874 468.8125 1218.1562 C 470.14125 1216.125 471.53125 1213.4537 470.59375 1211.5 C 469.65625 1209.5474 456.37125 1211.3087 453.1875 1212.2188 C 451.5475 1212.6874 450.21875 1212.9851 449.125 1211.1875 C 448.03125 1209.3913 442.9375 1199.4687 442.46875 1198.375 C 442 1197.2812 442.01625 1195.7188 446.46875 1194.3125 C 450.88856 1192.917 463.85496 1186.8426 477.40625 1186.75 z M 303.59375 1204.7812 L 326.4375 1227.625 C 321.723 1229.3928 286.29333 1235.9097 289.59375 1233.9688 C 312.50135 1220.4887 305.95106 1210.9693 303.59375 1204.7812 z M 648.21875 1207.4062 C 645.86141 1213.5943 639.31114 1223.0824 662.21875 1236.5625 C 665.51916 1238.5036 630.0896 1231.9867 625.375 1230.2188 L 648.21875 1207.4062 z M 395.09375 1216.7188 C 396.47106 1216.6102 397.00504 1217.2782 397.28125 1217.9688 C 397.72319 1219.0737 401.12825 1229.7064 401.625 1231.75 C 402.12264 1233.7944 400.95986 1234.5156 399.46875 1235.3438 C 396.57404 1236.9515 385.93854 1245.1128 386.65625 1247.1562 C 387.37484 1249.2006 390.24911 1250.0971 392.625 1250.5938 C 394.99999 1251.0913 410.25 1254.0938 410.25 1254.0938 C 410.25 1254.0938 412.93099 1265.0359 414.3125 1270.0625 C 407.69454 1263.4446 402.13484 1265.1603 399.25 1267.0625 L 399.09375 1266.9375 C 398.97237 1267.0589 398.8557 1267.2495 398.71875 1267.4062 C 398.30504 1267.7157 397.97657 1268.0235 397.71875 1268.2812 L 397.90625 1268.4375 C 395.99681 1271.3144 394.2674 1276.8924 400.90625 1283.5312 C 395.8796 1282.1498 384.96875 1279.4688 384.96875 1279.4688 C 384.96875 1279.4688 381.93514 1264.2188 381.4375 1261.8438 C 380.94075 1259.4678 380.01317 1256.5935 377.96875 1255.875 C 375.92521 1255.1572 367.79529 1265.7928 366.1875 1268.6875 C 365.3593 1270.1787 364.63816 1271.3413 362.59375 1270.8438 C 360.55021 1270.3469 349.91735 1266.9107 348.8125 1266.4688 C 347.70765 1266.0267 346.62727 1264.924 348.78125 1260.7812 C 350.91972 1256.6691 355.79581 1243.2103 365.3125 1233.5625 C 365.38837 1233.4919 365.45535 1233.4144 365.53125 1233.3438 C 375.06729 1224.5606 387.61461 1219.9906 391.5625 1217.9375 C 393.11604 1217.1298 394.26736 1216.7839 395.09375 1216.7188 z M 556.1875 1219.375 C 556.33445 1219.3658 556.51534 1219.3614 556.6875 1219.375 C 557.51389 1219.4401 558.63396 1219.7858 560.1875 1220.5938 C 564.2996 1222.7323 577.7585 1227.6082 587.40625 1237.125 C 587.47687 1237.2013 587.55444 1237.2678 587.625 1237.3438 C 596.4082 1246.8799 600.97815 1259.4584 603.03125 1263.4062 C 605.18526 1267.549 604.10491 1268.6517 603 1269.0938 C 601.89514 1269.5357 591.26229 1272.9408 589.21875 1273.4375 C 587.17431 1273.9352 586.4532 1272.8037 585.625 1271.3125 C 584.01722 1268.4178 575.8873 1257.7822 573.84375 1258.5 C 571.79934 1259.2185 570.8717 1262.0928 570.375 1264.4688 C 569.87735 1266.8438 566.875 1282.0625 566.875 1282.0625 C 566.875 1282.0625 555.9329 1284.7434 550.90625 1286.125 C 557.5242 1279.5071 555.80845 1273.9473 553.90625 1271.0625 L 554.0625 1270.9375 C 553.94112 1270.8163 553.71925 1270.6682 553.5625 1270.5312 C 553.25306 1270.1174 552.9766 1269.7891 552.71875 1269.5312 L 552.53125 1269.7188 C 549.65436 1267.8094 544.1076 1266.0799 537.46875 1272.7188 C 538.85028 1267.6922 541.5 1256.7812 541.5 1256.7812 C 541.5 1256.7812 556.75002 1253.7474 559.125 1253.25 C 561.5009 1252.7532 564.37519 1251.857 565.09375 1249.8125 C 565.81149 1247.7691 555.17599 1239.6077 552.28125 1238 C 550.79014 1237.1717 549.65861 1236.4507 550.15625 1234.4062 C 550.65301 1232.3628 554.05806 1221.7298 554.5 1220.625 C 554.74169 1220.0207 555.15883 1219.4395 556.1875 1219.375 z M 238 1261.9375 C 238.83375 1261.9375 243.09375 1262.3438 243.09375 1268.5938 C 238.71876 1268.5938 216.73999 1271.9475 208.40625 1281.8438 C 200.07374 1291.7387 199.5525 1304.0113 207.46875 1313.2812 C 201.63625 1309.7401 191.53125 1300.0625 186.84375 1287.25 C 182.15625 1274.4375 179.34375 1267.0412 179.34375 1264.75 C 184.65625 1264.75 237.16625 1261.9375 238 1261.9375 z M 162.3125 1264.5312 C 165.90748 1264.429 168.78125 1264.8539 171.125 1265.375 C 177.37499 1280.375 187.375 1330.375 187.375 1330.375 L 288.9375 1333.9688 L 288.9375 1345.5312 L 288.96875 1345.5312 L 288.96875 1355.1562 L 187.40625 1358.75 C 187.40625 1358.75 177.40626 1408.75 171.15625 1423.75 C 167.40626 1424.5837 162.25001 1425.1562 155.0625 1423.75 C 156.59061 1419.7769 164.22615 1373.8538 164.5625 1345.5312 C 164.56276 1345.5106 164.56224 1345.4894 164.5625 1345.4688 C 164.57 1344.8523 164.59375 1344.1928 164.59375 1343.5938 L 164.53125 1343.5938 C 164.19306 1315.2703 156.55915 1269.3475 155.03125 1265.375 C 157.72656 1264.8476 160.15551 1264.5927 162.3125 1264.5312 z M 134.5625 1265.4688 C 134.97875 1268.0738 135.28125 1271.6249 135.90625 1274.125 C 131.94875 1275.2712 118.5725 1280.2613 114.71875 1282.0312 C 113.81625 1279.3588 113.40625 1276.7188 113.40625 1273.5938 C 115.59374 1271.4062 124.875 1267.9475 134.5625 1265.4688 z M 715.78125 1265.9375 C 716.615 1265.9375 769.125 1268.75 774.4375 1268.75 C 774.43749 1271.0412 771.62499 1278.4374 766.9375 1291.25 C 762.25 1304.0624 752.145 1313.7401 746.3125 1317.2812 C 754.22875 1308.0113 753.7075 1295.7075 745.375 1285.8125 C 737.04124 1275.9163 715.0625 1272.5938 710.6875 1272.5938 C 710.6875 1266.3438 714.9475 1265.9375 715.78125 1265.9375 z M 789.4375 1268.5312 C 792.09375 1268.4596 795.15624 1268.6718 798.75 1269.375 C 797.22189 1273.3481 789.58635 1319.2713 789.25 1347.5938 C 789.24974 1347.6137 789.25026 1347.6363 789.25 1347.6562 C 789.2425 1348.2728 789.21875 1348.9323 789.21875 1349.5312 L 789.28125 1349.5312 C 789.61944 1377.8547 797.25335 1423.7773 798.78125 1427.75 C 791.59374 1429.1562 786.4375 1428.5837 782.6875 1427.75 C 776.43751 1412.75 766.4375 1362.75 766.4375 1362.75 L 664.875 1359.1562 L 664.875 1347.5938 L 664.84375 1347.5938 L 664.84375 1337.9688 L 766.40625 1334.375 C 766.40625 1334.375 776.40624 1284.375 782.65625 1269.375 C 784.53124 1268.9581 786.78125 1268.6029 789.4375 1268.5312 z M 819.21875 1269.4688 C 828.90626 1271.9475 838.18749 1275.4062 840.375 1277.5938 C 840.375 1280.7188 839.965 1283.3274 839.0625 1286 C 835.20875 1284.2299 821.83249 1279.2712 817.875 1278.125 C 818.5 1275.625 818.80251 1272.0738 819.21875 1269.4688 z M 138 1280.7812 L 138 1291.9375 C 138 1291.9375 123.5 1295.1663 115.6875 1299.4375 C 115.38875 1295.3613 115.375 1288.7188 115.375 1288.7188 L 115.8125 1288.7188 C 115.8125 1288.7188 128.72875 1282.9688 138 1280.7812 z M 815.78125 1284.7812 C 825.0525 1286.9688 837.96875 1292.6875 837.96875 1292.6875 L 838.40625 1292.6875 C 838.40625 1292.6875 838.3925 1299.3613 838.09375 1303.4375 C 830.28125 1299.1663 815.78125 1295.9375 815.78125 1295.9375 L 815.78125 1284.7812 z M 266.3125 1291.0938 C 267.22536 1290.4198 285.88894 1317.5687 287.875 1321.9375 L 255.59375 1321.9375 C 261.63625 1319.2288 272.97875 1317.1363 266.3125 1291.4062 C 266.26738 1291.2326 266.26763 1291.1269 266.3125 1291.0938 z M 687.40625 1295.0938 C 687.50362 1295.079 687.52888 1295.1746 687.46875 1295.4062 C 680.8025 1321.1363 692.145 1323.2288 698.1875 1325.9375 L 665.90625 1325.9375 C 667.85959 1321.6403 685.94506 1295.3146 687.40625 1295.0938 z M 330.3125 1310.0938 C 330.63476 1310.0888 330.91409 1310.164 331.1875 1310.2812 C 332.28125 1310.7501 342.20375 1315.8438 344 1316.9375 C 345.7975 1318.0313 345.5 1319.36 345.03125 1321 C 344.12125 1324.1837 342.35999 1337.4688 344.3125 1338.4062 C 346.26625 1339.3438 348.9375 1337.9537 350.96875 1336.625 C 353 1335.2975 365.90625 1326.6562 365.90625 1326.6562 C 365.90625 1326.6562 375.53126 1332.485 380.0625 1335.0625 C 370.7033 1335.0625 367.97605 1340.2088 367.28125 1343.5938 L 367.09375 1343.5938 C 367.09375 1343.7654 367.14225 1344.0111 367.15625 1344.2188 C 367.0825 1344.7301 367.0625 1345.1667 367.0625 1345.5312 L 367.3125 1345.5312 C 367.9966 1348.9157 370.705 1354.0625 380.09375 1354.0625 C 375.56249 1356.6401 365.96875 1362.4688 365.96875 1362.4688 C 365.96875 1362.4688 353.03124 1353.8274 351 1352.5 C 348.96875 1351.1712 346.29749 1349.7812 344.34375 1350.7188 C 342.39124 1351.6562 344.15251 1364.9412 345.0625 1368.125 C 345.53125 1369.765 345.82875 1371.0938 344.03125 1372.1875 C 342.235 1373.2813 332.31249 1378.3751 331.21875 1378.8438 C 330.125 1379.3124 328.56245 1379.2963 327.15625 1374.8438 C 325.76069 1370.4239 319.68641 1357.4576 319.59375 1343.9062 C 319.5975 1343.8026 319.59 1343.6973 319.59375 1343.5938 C 320.12609 1330.64 325.78519 1318.5246 327.125 1314.2812 C 328.17969 1310.9418 329.34573 1310.1092 330.3125 1310.0938 z M 137.15625 1311.5312 C 137.15625 1311.5312 141.2075 1316.2175 144.4375 1335.9062 L 129.125 1335.9062 L 137.15625 1311.5312 z M 623.5 1314.0938 C 624.46679 1314.1092 625.6016 1314.9418 626.65625 1318.2812 C 628.05181 1322.7012 634.12609 1335.6674 634.21875 1349.2188 C 634.215 1349.3225 634.2225 1349.4278 634.21875 1349.5312 C 633.68641 1362.4851 628.02731 1374.6006 626.6875 1378.8438 C 625.28125 1383.2963 623.7187 1383.3124 622.625 1382.8438 C 621.53125 1382.3751 611.60875 1377.2813 609.8125 1376.1875 C 608.015 1375.0938 608.3125 1373.765 608.78125 1372.125 C 609.69125 1368.9412 611.45251 1355.6562 609.5 1354.7188 C 607.54625 1353.7812 604.875 1355.1712 602.84375 1356.5 C 600.8125 1357.8275 587.90625 1366.4688 587.90625 1366.4688 C 587.90625 1366.4688 578.28124 1360.6401 573.75 1358.0625 C 583.1092 1358.0625 585.83645 1352.9161 586.53125 1349.5312 L 586.71875 1349.5312 C 586.71875 1349.3596 586.67025 1349.1138 586.65625 1348.9062 C 586.73 1348.3948 586.75 1347.9584 586.75 1347.5938 L 586.5 1347.5938 C 585.8159 1344.2093 583.1075 1339.0625 573.71875 1339.0625 C 578.25001 1336.485 587.84375 1330.6562 587.84375 1330.6562 C 587.84375 1330.6562 600.78126 1339.2974 602.8125 1340.625 C 604.84375 1341.9537 607.51501 1343.3438 609.46875 1342.4062 C 611.42126 1341.4688 609.65999 1328.1837 608.75 1325 C 608.28125 1323.3599 607.98375 1322.0313 609.78125 1320.9375 C 611.5775 1319.8438 621.50001 1314.7501 622.59375 1314.2812 C 622.86719 1314.164 623.17774 1314.0886 623.5 1314.0938 z M 816.625 1315.5 L 824.65625 1339.875 L 809.34375 1339.875 C 812.57374 1320.1862 816.625 1315.5 816.625 1315.5 z M 129.15625 1353.25 L 144.46875 1353.25 C 141.23876 1372.9387 137.1875 1377.625 137.1875 1377.625 L 129.15625 1353.25 z M 809.375 1357.2188 L 824.6875 1357.2188 L 816.65625 1381.5938 C 816.65625 1381.5938 812.605 1376.9075 809.375 1357.2188 z M 255.625 1367.1875 L 287.90625 1367.1875 C 285.8227 1371.7713 265.3825 1401.425 266.34375 1397.7188 C 273.01 1371.9887 261.6675 1369.8963 255.625 1367.1875 z M 665.9375 1371.1875 L 698.21875 1371.1875 C 692.17625 1373.8963 680.83375 1375.9887 687.5 1401.7188 C 688.46125 1405.425 668.02125 1375.7713 665.9375 1371.1875 z M 207.5 1375.8438 C 199.58375 1385.1137 200.105 1397.4176 208.4375 1407.3125 C 216.77126 1417.2088 238.75 1420.5312 243.125 1420.5312 C 243.125 1426.7812 238.865 1427.1875 238.03125 1427.1875 C 237.1975 1427.1875 184.6875 1424.375 179.375 1424.375 C 179.37501 1422.0837 182.18751 1414.6874 186.875 1401.875 C 191.5625 1389.0624 201.6675 1379.385 207.5 1375.8438 z M 746.34375 1379.8438 C 752.17625 1383.385 762.28125 1393.0624 766.96875 1405.875 C 771.65625 1418.6874 774.46875 1426.0837 774.46875 1428.375 C 769.15625 1428.375 716.64625 1431.1875 715.8125 1431.1875 C 714.97875 1431.1875 710.71875 1430.7812 710.71875 1424.5312 C 715.09374 1424.5312 737.07251 1421.1776 745.40625 1411.2812 C 753.73876 1401.3863 754.26 1389.1137 746.34375 1379.8438 z M 115.71875 1389.6875 C 123.53125 1393.9588 138.03125 1397.1875 138.03125 1397.1875 L 138.03125 1408.3438 C 128.76 1406.1562 115.84375 1400.4375 115.84375 1400.4375 L 115.40625 1400.4375 C 115.40625 1400.4375 115.42 1393.7638 115.71875 1389.6875 z M 838.125 1393.6875 C 838.42375 1397.7638 838.4375 1404.4062 838.4375 1404.4062 L 838 1404.4062 C 838 1404.4062 825.08375 1410.1562 815.8125 1412.3438 L 815.8125 1401.1875 C 815.8125 1401.1875 830.3125 1397.9588 838.125 1393.6875 z M 402.90625 1407 C 396.2883 1413.6179 398.00405 1419.1777 399.90625 1422.0625 L 399.78125 1422.2188 C 399.90263 1422.3401 400.1245 1422.4568 400.28125 1422.5938 C 400.59069 1423.0075 400.86716 1423.3359 401.125 1423.5938 L 401.3125 1423.4375 C 404.18939 1425.347 409.73615 1427.0451 416.375 1420.4062 C 414.99349 1425.4328 412.34375 1436.3438 412.34375 1436.3438 C 412.34375 1436.3438 397.06247 1439.3773 394.6875 1439.875 C 392.3116 1440.3717 389.43731 1441.2994 388.71875 1443.3438 C 388.00101 1445.3872 398.66776 1453.5172 401.5625 1455.125 C 403.05361 1455.9531 404.18514 1456.7055 403.6875 1458.75 C 403.19074 1460.7935 399.78569 1471.3951 399.34375 1472.5 C 398.90181 1473.6048 397.76776 1474.6852 393.625 1472.5312 C 389.5129 1470.3928 376.054 1465.5479 366.40625 1456.0312 C 366.33562 1455.9554 366.25809 1455.8885 366.1875 1455.8125 C 357.4043 1446.2765 352.83435 1433.6978 350.78125 1429.75 C 348.62724 1425.6072 349.73884 1424.4733 350.84375 1424.0312 C 351.94862 1423.5893 362.55021 1420.1843 364.59375 1419.6875 C 366.63819 1419.1899 367.39055 1420.3527 368.21875 1421.8438 C 369.82653 1424.7385 377.95645 1435.374 380 1434.6562 C 382.04441 1433.9377 382.94079 1431.0634 383.4375 1428.6875 C 383.93514 1426.3126 386.96875 1411.0625 386.96875 1411.0625 C 386.96875 1411.0625 397.87961 1408.3815 402.90625 1407 z M 114.75 1407.125 C 118.60375 1408.8949 131.98001 1413.8537 135.9375 1415 C 135.3125 1417.5 135.00999 1421.0512 134.59375 1423.6562 C 124.90624 1421.1776 115.62501 1417.7188 113.4375 1415.5312 C 113.4375 1412.4062 113.8475 1409.7974 114.75 1407.125 z M 552.9375 1409.625 C 557.96415 1411.0064 568.875 1413.6562 568.875 1413.6562 C 568.875 1413.6562 571.90864 1428.9375 572.40625 1431.3125 C 572.903 1433.6884 573.79934 1436.5314 575.84375 1437.25 C 577.88729 1437.9677 586.04849 1427.3323 587.65625 1424.4375 C 588.48445 1422.9464 589.20559 1421.8149 591.25 1422.3125 C 593.29354 1422.8093 603.9264 1426.2142 605.03125 1426.6562 C 606.1361 1427.0982 607.21649 1428.201 605.0625 1432.3438 C 602.92404 1436.4559 598.04793 1449.946 588.53125 1459.5938 C 588.45538 1459.6637 588.3884 1459.7419 588.3125 1459.8125 C 578.77646 1468.5957 566.1979 1473.1656 562.25 1475.2188 C 558.10724 1477.3727 557.00445 1476.2606 556.5625 1475.1562 C 556.12056 1474.0513 552.7155 1463.4497 552.21875 1461.4062 C 551.72113 1459.3618 552.85264 1458.6095 554.34375 1457.7812 C 557.23846 1456.1735 567.87396 1448.0436 567.15625 1446 C 566.43766 1443.9556 563.56339 1443.0281 561.1875 1442.5312 C 558.8125 1442.0337 543.59375 1439.0312 543.59375 1439.0312 C 543.59375 1439.0312 540.91276 1428.1203 539.53125 1423.0938 C 546.14921 1429.7117 551.70894 1427.9959 554.59375 1426.0938 L 554.71875 1426.2188 C 554.84013 1426.0975 554.98805 1425.8755 555.125 1425.7188 C 555.53871 1425.4094 555.86719 1425.1327 556.125 1424.875 L 555.9375 1424.6875 C 557.84693 1421.8107 559.57635 1416.2638 552.9375 1409.625 z M 839.09375 1411.0938 C 839.99625 1413.7662 840.40625 1416.4062 840.40625 1419.5312 C 838.21876 1421.7188 828.9375 1425.1775 819.25 1427.6562 C 818.83375 1425.0512 818.53125 1421.5 817.90625 1419 C 821.86375 1417.8537 835.24 1412.8637 839.09375 1411.0938 z M 486.59375 1445.9062 C 489.17126 1450.4374 495 1460.0312 495 1460.0312 C 495 1460.0312 486.35876 1472.9687 485.03125 1475 C 483.70251 1477.0312 482.3125 1479.7024 483.25 1481.6562 C 484.1875 1483.6087 497.4725 1481.8476 500.65625 1480.9375 C 502.29626 1480.4688 503.625 1480.1712 504.71875 1481.9688 C 505.8125 1483.7649 510.90625 1493.6874 511.375 1494.7812 C 511.84375 1495.8751 511.82751 1497.4374 507.375 1498.8438 C 502.95519 1500.2394 489.98879 1506.3137 476.4375 1506.4062 L 476.125 1506.4062 C 463.17134 1505.8738 451.05582 1500.2147 446.8125 1498.875 C 442.35999 1497.4687 442.34375 1495.9063 442.8125 1494.8125 C 443.28125 1493.7188 448.375 1483.7962 449.46875 1482 C 450.5625 1480.2024 451.89124 1480.5 453.53125 1480.9688 C 456.715 1481.8787 470 1483.64 470.9375 1481.6875 C 471.875 1479.7338 470.48499 1477.0624 469.15625 1475.0312 C 467.82874 1473 459.1875 1460.0938 459.1875 1460.0938 C 459.1875 1460.0938 465.01624 1450.4688 467.59375 1445.9375 C 467.59375 1455.2967 472.74006 1458.0239 476.125 1458.7188 L 476.125 1458.9062 C 476.29665 1458.9062 476.54234 1458.8575 476.75 1458.8438 C 477.26134 1458.9175 477.69789 1458.9375 478.0625 1458.9375 L 478.0625 1458.6875 C 481.44694 1458.0036 486.59375 1455.2949 486.59375 1445.9062 z M 254.03125 1454.375 C 255.40289 1454.3506 257.12901 1454.9102 259.0625 1456.8438 C 255.96891 1459.9373 242.8014 1477.8594 243.90625 1490.75 C 245.0111 1503.6387 253.31624 1512.699 265.46875 1513.6562 C 258.8405 1515.2764 244.87439 1515.5578 232.5 1509.8125 C 220.12563 1504.0673 212.90142 1500.8389 211.28125 1499.2188 C 215.03776 1495.4623 250.16045 1456.3395 250.75 1455.75 C 251.08163 1455.4183 252.26773 1454.4063 254.03125 1454.375 z M 292.0625 1456.2188 C 296.69586 1456.1896 324.31221 1461.3594 328.4375 1462.9062 L 305.625 1485.75 C 307.98235 1479.5619 314.53261 1470.0427 291.625 1456.5625 C 291.21245 1456.3199 291.40059 1456.223 292.0625 1456.2188 z M 701.8125 1457 C 703.57604 1457.0312 704.76214 1458.0434 705.09375 1458.375 C 705.6833 1458.9646 740.83725 1498.0873 744.59375 1501.8438 C 742.9736 1503.4639 735.74936 1506.6923 723.375 1512.4375 C 711.00064 1518.1828 697.00324 1517.8701 690.375 1516.25 C 702.52751 1515.2927 710.8639 1506.2326 711.96875 1493.3438 C 713.07361 1480.4532 699.87485 1462.5624 696.78125 1459.4688 C 698.71475 1457.5352 700.44086 1456.9756 701.8125 1457 z M 663.8125 1458.8125 C 664.47441 1458.8162 664.66255 1458.9449 664.25 1459.1875 C 641.3424 1472.6677 647.86144 1482.1558 650.21875 1488.3438 L 627.40625 1465.5312 C 631.53144 1463.9843 659.17915 1458.7834 663.8125 1458.8125 z M 337.71875 1470.6562 L 345.875 1478.8438 L 345.90625 1478.8125 L 352.71875 1485.625 L 283.4375 1560 C 283.4375 1560 311.71906 1602.4115 317.90625 1617.4375 C 315.84415 1620.6787 312.60795 1624.7246 306.53125 1628.8125 C 304.8024 1624.9226 277.72679 1587.0461 257.9375 1566.7812 C 257.92312 1566.7665 257.92062 1566.7646 257.90625 1566.75 C 257.47564 1566.3087 257.01734 1565.8299 256.59375 1565.4062 L 256.5625 1565.4375 C 236.29563 1545.649 198.42065 1518.5723 194.53125 1516.8438 C 198.61923 1510.767 202.66505 1507.5309 205.90625 1505.4688 C 220.93228 1511.656 263.34375 1539.9375 263.34375 1539.9375 L 337.71875 1470.6562 z M 618.15625 1473.2812 L 692.5 1542.5625 C 692.5 1542.5625 734.94272 1514.2811 749.96875 1508.0938 C 753.20995 1510.1559 757.25579 1513.3922 761.34375 1519.4688 C 757.45384 1521.1977 719.57745 1548.2733 699.3125 1568.0625 C 699.29775 1568.0763 699.26462 1568.08 699.25 1568.0938 C 698.80876 1568.5243 698.32985 1568.9826 697.90625 1569.4062 L 697.96875 1569.4375 C 678.18015 1589.7044 651.10364 1627.5793 649.375 1631.4688 C 643.29831 1627.3808 640.0621 1623.3348 638 1620.0938 C 644.18719 1605.0677 672.46875 1562.6562 672.46875 1562.6562 L 603.1875 1488.2812 L 611.375 1480.125 L 611.34375 1480.0938 L 618.15625 1473.2812 z M 360.46875 1494.875 C 362.23665 1499.5895 368.7535 1535.0192 366.8125 1531.7188 C 353.33239 1508.8111 343.8443 1515.3615 337.65625 1517.7188 L 360.46875 1494.875 z M 595.4375 1497.5312 L 618.25 1520.375 C 612.06192 1518.0176 602.57386 1511.4673 589.09375 1534.375 C 587.15275 1537.6753 593.66974 1502.2459 595.4375 1497.5312 z M 180.125 1531.4062 C 182.26135 1532.954 184.9778 1535.2367 187.1875 1536.5625 C 185.19966 1540.1714 179.25469 1553.1483 177.78125 1557.125 C 175.25335 1555.8734 173.11596 1554.3035 170.90625 1552.0938 C 170.90626 1549.0002 175.02765 1540.0091 180.125 1531.4062 z M 775.75 1534 C 780.84735 1542.6027 784.96875 1551.6252 784.96875 1554.7188 C 782.75905 1556.9283 780.62165 1558.4671 778.09375 1559.7188 C 776.62031 1555.7422 770.67535 1542.7964 768.6875 1539.1875 C 770.8972 1537.8617 773.61365 1535.5476 775.75 1534 z M 478.0625 1537.0312 L 487.6875 1537.0312 L 491.28125 1638.5938 C 491.28125 1638.5938 541.28125 1648.5938 556.28125 1654.8438 C 557.115 1658.5938 557.6875 1663.7501 556.28125 1670.9375 C 552.30819 1669.4094 506.3851 1661.7738 478.0625 1661.4375 C 478.04188 1661.4373 478.0205 1661.4378 478 1661.4375 C 477.38351 1661.425 476.72406 1661.4062 476.125 1661.4062 L 476.125 1661.4688 C 447.8015 1661.807 401.8788 1669.4408 397.90625 1670.9688 C 396.5 1663.7812 397.0725 1658.625 397.90625 1654.875 C 412.90625 1648.625 462.90625 1638.625 462.90625 1638.625 L 466.5 1537.0625 L 478.0625 1537.0625 L 478.0625 1537.0312 z M 499.71875 1538.0938 C 504.3025 1540.1773 533.95624 1560.6176 530.25 1559.6562 C 504.52 1552.9901 502.42751 1564.3324 499.71875 1570.375 L 499.71875 1538.0938 z M 454.46875 1538.125 L 454.46875 1570.4062 C 451.76 1564.3637 449.6675 1553.0213 423.9375 1559.6875 C 420.23126 1560.6488 449.88499 1540.2087 454.46875 1538.125 z M 193.375 1539.7812 L 201.25 1547.6875 C 201.25 1547.6875 193.28531 1560.2055 190.78125 1568.75 C 187.68766 1566.0789 183 1561.4062 183 1561.4062 L 183.28125 1561.0938 C 183.28125 1561.0938 188.36604 1547.8838 193.375 1539.7812 z M 762.5 1542.4062 C 767.50897 1550.5088 772.59375 1563.6875 772.59375 1563.6875 L 772.90625 1564 C 772.90625 1564 768.1561 1568.7038 765.0625 1571.375 C 762.55846 1562.8304 754.59375 1550.2812 754.59375 1550.2812 L 762.5 1542.4062 z M 309.75 1557.875 C 310.70724 1570.0275 319.76746 1578.3327 332.65625 1579.4375 C 345.54681 1580.5424 363.43765 1567.3749 366.53125 1564.2812 C 370.95065 1568.7006 368.21455 1572.0043 367.625 1572.5938 C 367.03545 1573.1833 327.91275 1608.3061 324.15625 1612.0625 C 322.53608 1610.4424 319.30775 1603.2182 313.5625 1590.8438 C 307.81727 1578.4694 308.12984 1564.5032 309.75 1557.875 z M 646.15625 1560.5312 C 647.77641 1567.1595 648.08899 1581.1256 642.34375 1593.5 C 636.5985 1605.8743 633.37016 1613.0987 631.75 1614.7188 C 627.9935 1610.9623 588.8708 1575.8396 588.28125 1575.25 C 587.6917 1574.6604 584.95559 1571.3569 589.375 1566.9375 C 592.4686 1570.0312 610.39069 1583.1987 623.28125 1582.0938 C 636.17004 1580.9889 645.19901 1572.6837 646.15625 1560.5312 z M 214.53125 1562.125 C 214.53125 1562.125 220.70025 1562.5807 236.90625 1574.2188 L 226.0625 1585.0312 L 214.53125 1562.125 z M 741.375 1564.7188 L 729.8125 1587.625 L 718.96875 1576.8125 C 735.17476 1565.1746 741.375 1564.7188 741.375 1564.7188 z M 553.0625 1582.875 C 559.3125 1582.875 559.71875 1587.135 559.71875 1587.9688 C 559.71875 1588.8026 556.90625 1641.3124 556.90625 1646.625 C 554.615 1646.625 547.21875 1643.8124 534.40625 1639.125 C 521.59375 1634.4374 511.91624 1624.3324 508.375 1618.5 C 517.645 1626.4162 529.94875 1625.895 539.84375 1617.5625 C 549.73999 1609.2288 553.0625 1587.25 553.0625 1582.875 z M 401.125 1582.9062 C 401.125 1587.2812 404.47874 1609.2599 414.375 1617.5938 C 424.27 1625.9262 436.5425 1626.4474 445.8125 1618.5312 C 442.27125 1624.3637 432.59375 1634.4688 419.78125 1639.1562 C 406.96875 1643.8438 399.5725 1646.6562 397.28125 1646.6562 C 397.28125 1641.3438 394.46875 1588.8337 394.46875 1588 C 394.46875 1587.1662 394.875 1582.9062 401.125 1582.9062 z M 249.1875 1586.4688 C 260.8256 1602.6747 261.28125 1608.8438 261.28125 1608.8438 L 238.375 1597.2812 L 249.1875 1586.4688 z M 706.71875 1589.0938 L 717.5625 1599.9062 L 694.65625 1611.4688 C 694.65625 1611.4688 695.08068 1605.2997 706.71875 1589.0938 z M 275.71875 1622.0625 L 283.59375 1629.9688 C 275.49119 1634.9778 262.3125 1640.0625 262.3125 1640.0625 L 262 1640.375 C 262 1640.375 257.29609 1635.6561 254.625 1632.5625 C 263.1695 1630.0585 275.71875 1622.0625 275.71875 1622.0625 z M 680.1875 1624.75 C 680.1875 1624.75 692.73675 1632.7147 701.28125 1635.2188 C 698.61015 1638.3123 693.90625 1643 693.90625 1643 L 693.59375 1642.6875 C 693.59375 1642.6875 680.41505 1637.634 672.3125 1632.625 L 680.1875 1624.75 z M 286.8125 1636.1562 C 288.13831 1638.3659 290.45234 1641.0823 292 1643.2188 C 283.39719 1648.3161 274.37485 1652.4375 271.28125 1652.4375 C 269.07155 1650.2278 267.53285 1648.0904 266.28125 1645.5625 C 270.25785 1644.0891 283.2036 1638.1441 286.8125 1636.1562 z M 669.09375 1638.8125 C 672.70264 1640.8003 685.67965 1646.714 689.65625 1648.1875 C 688.40466 1650.7154 686.8347 1652.884 684.625 1655.0938 C 681.5314 1655.0938 672.5091 1650.9723 663.90625 1645.875 C 665.45394 1643.7386 667.76792 1641.0222 669.09375 1638.8125 z M 485.78125 1681.5312 C 505.46999 1684.7612 510.15625 1688.8125 510.15625 1688.8125 L 485.78125 1696.8438 L 485.78125 1681.5312 z M 468.4375 1681.5625 L 468.4375 1696.875 L 444.0625 1688.8438 C 444.0625 1688.8438 448.74875 1684.7926 468.4375 1681.5625 z M 529.71875 1687.9688 L 540.875 1687.9688 C 538.6875 1697.2401 532.96875 1710.1562 532.96875 1710.1562 L 532.96875 1710.5938 C 532.96875 1710.5938 526.29501 1710.58 522.21875 1710.2812 C 526.49 1702.4688 529.71875 1687.9688 529.71875 1687.9688 z M 413.3125 1688 L 424.46875 1688 C 424.46875 1688 427.6975 1702.5001 431.96875 1710.3125 C 427.8925 1710.6113 421.25 1710.625 421.25 1710.625 L 421.25 1710.1875 C 421.25 1710.1875 415.5 1697.2712 413.3125 1688 z M 547.53125 1690.0625 C 550.03125 1690.6875 553.5825 1690.99 556.1875 1691.4062 C 553.70874 1701.0938 550.25 1710.3751 548.0625 1712.5625 C 544.9375 1712.5625 542.32876 1712.1525 539.65625 1711.25 C 541.42625 1707.3962 546.385 1694.02 547.53125 1690.0625 z M 406.65625 1690.0938 C 407.80249 1694.0512 412.7925 1707.4276 414.5625 1711.2812 C 411.89001 1712.1838 409.25 1712.5938 406.125 1712.5938 C 403.9375 1710.4062 400.47876 1701.1251 398 1691.4375 C 400.605 1691.0213 404.15625 1690.7188 406.65625 1690.0938 z "
               transform="matrix(0.8,0,0,-0.8,6.131,1506.854)"
               id="path3129" />
          </g>
        </g>
      </g>
      <g
         id="g3131" />
    </g>
  </g>
</svg>
