<?xml version="1.0" standalone="no"?>
<!DOCTYPE svg PUBLIC "-//W3C//DTD SVG 20010904//EN"
 "http://www.w3.org/TR/2001/REC-SVG-20010904/DTD/svg10.dtd">
<svg version="1.0" xmlns="http://www.w3.org/2000/svg"
 width="420.000000pt" height="420.000000pt" viewBox="0 0 420.000000 420.000000"
 preserveAspectRatio="xMidYMid meet">
<metadata>
Created by potrace 1.11, written by Peter Selinger 2001-2013
</metadata>
<g transform="translate(0.000000,420.000000) scale(0.100000,-0.100000)"
fill="#000000" stroke="none">
<path d="M1960 4084 c-114 -24 -223 -86 -315 -178 -74 -74 -78 -81 -56 -84 40
-6 150 28 236 72 56 28 101 62 153 113 98 98 97 102 -18 77z"/>
<path d="M2140 4091 c0 -16 92 -112 145 -151 60 -45 112 -71 181 -94 70 -23
154 -36 154 -23 0 5 -35 44 -77 86 -90 89 -181 141 -299 171 -86 22 -104 24
-104 11z"/>
<path d="M2072 4018 c-54 -146 -55 -300 0 -445 11 -29 23 -51 28 -48 5 3 19
36 32 73 20 58 23 86 22 202 0 116 -3 143 -23 195 -13 33 -27 64 -31 68 -4 5
-17 -15 -28 -45z"/>
<path d="M1956 3928 c-65 -52 -127 -87 -197 -113 l-59 -21 52 -19 c73 -25 132
-59 202 -113 53 -41 59 -43 52 -21 -14 44 -19 215 -7 269 6 29 10 54 9 55 -2
1 -25 -15 -52 -37z"/>
<path d="M2197 3903 c10 -70 7 -185 -6 -242 -5 -22 -7 -41 -4 -41 3 0 25 17
49 39 47 41 153 100 219 122 l40 13 -40 12 c-62 18 -155 68 -214 114 l-53 42
9 -59z"/>
<path d="M1410 3764 c-8 -3 -42 -14 -76 -25 -102 -32 -174 -78 -259 -163 -77
-78 -79 -81 -53 -84 40 -5 171 34 239 70 66 36 151 107 199 168 l32 40 -34 -1
c-18 0 -40 -3 -48 -5z"/>
<path d="M1579 3752 c18 -34 130 -137 185 -171 31 -18 85 -44 120 -57 69 -25
166 -42 166 -29 0 17 -74 97 -130 140 -91 70 -248 135 -327 135 -20 0 -22 -3
-14 -18z"/>
<path d="M2490 3747 c-126 -38 -222 -100 -311 -203 l-42 -49 27 -3 c34 -4 153
31 221 65 91 46 189 132 229 201 11 19 -38 14 -124 -11z"/>
<path d="M2729 3742 c37 -53 146 -147 207 -179 65 -35 202 -76 235 -71 19 3
18 6 -16 49 -48 62 -139 133 -217 169 -67 31 -166 60 -206 60 l-23 0 20 -28z"/>
<path d="M1494 3658 c-39 -119 -39 -267 0 -385 15 -46 30 -83 35 -83 14 0 51
124 61 203 6 52 6 103 0 150 -11 76 -48 197 -61 197 -5 0 -20 -37 -35 -82z"/>
<path d="M2645 3704 c-53 -126 -59 -310 -14 -437 14 -38 29 -68 34 -68 6 1 21
32 34 69 20 56 24 87 25 192 1 107 -2 135 -23 195 -13 39 -27 74 -32 79 -4 5
-15 -9 -24 -30z"/>
<path d="M2756 3620 c11 -43 12 -265 1 -303 -7 -27 -5 -26 59 23 73 56 124 84
199 110 50 18 50 18 20 25 -55 14 -185 87 -237 133 l-50 46 8 -34z"/>
<path d="M1390 3599 c-48 -42 -175 -111 -225 -124 l-30 -7 25 -11 c100 -41
174 -81 224 -122 51 -41 58 -44 52 -24 -14 48 -18 205 -7 263 6 33 10 60 8 62
-1 1 -22 -16 -47 -37z"/>
<path d="M1627 3589 c10 -70 10 -180 -1 -247 l-8 -54 58 48 c51 41 124 80 224
121 l25 11 -30 7 c-52 13 -182 85 -230 127 l-46 41 8 -54z"/>
<path d="M2525 3599 c-65 -54 -124 -88 -197 -114 l-59 -21 43 -13 c65 -20 129
-55 204 -112 41 -32 64 -45 59 -33 -13 30 -18 237 -7 288 5 25 9 46 8 46 0 -1
-23 -19 -51 -41z"/>
<path d="M800 3424 c-107 -28 -200 -82 -282 -164 -43 -43 -78 -83 -78 -89 0
-24 168 20 247 65 86 47 186 134 213 185 9 17 7 19 -17 18 -15 0 -53 -7 -83
-15z"/>
<path d="M1010 3434 c0 -3 19 -28 41 -56 48 -57 142 -126 220 -163 58 -26 190
-60 211 -53 8 3 -22 40 -72 89 -64 63 -104 94 -160 122 -98 48 -240 84 -240
61z"/>
<path d="M1919 3416 c-42 -12 -108 -41 -146 -63 -73 -44 -216 -184 -194 -191
20 -7 153 27 210 53 78 37 172 106 220 163 22 28 41 53 41 56 0 12 -57 4 -131
-18z"/>
<path d="M2151 3423 c58 -78 144 -151 228 -195 82 -42 241 -81 241 -59 0 7
-33 45 -73 85 -55 55 -94 83 -158 114 -83 41 -181 72 -227 72 -22 0 -23 -2
-11 -17z"/>
<path d="M3073 3425 c-77 -21 -118 -40 -194 -91 -64 -42 -169 -146 -169 -167
0 -27 193 31 280 83 55 33 173 139 191 173 8 15 5 17 -23 16 -18 0 -56 -7 -85
-14z"/>
<path d="M3280 3436 c0 -2 16 -24 36 -48 51 -61 129 -123 199 -158 60 -30 216
-75 236 -68 17 6 -65 101 -126 147 -65 49 -161 97 -237 117 -51 13 -108 19
-108 10z"/>
<path d="M924 3328 c-45 -139 -35 -325 24 -442 l14 -30 15 35 c44 101 61 233
43 340 -14 82 -46 179 -60 179 -5 0 -21 -37 -36 -82z"/>
<path d="M2080 3386 c-35 -93 -45 -147 -44 -251 0 -93 5 -123 28 -194 15 -46
31 -79 36 -75 4 5 18 38 31 74 19 55 23 85 23 195 1 111 -2 140 -22 197 -27
78 -38 89 -52 54z"/>
<path d="M3219 3384 c-34 -88 -41 -118 -46 -209 -5 -106 9 -203 43 -280 l17
-40 18 40 c55 120 62 304 18 435 -27 82 -35 91 -50 54z"/>
<path d="M846 3295 c-57 -53 -160 -112 -261 -150 -17 -7 -14 -10 20 -20 61
-19 134 -58 201 -108 32 -25 60 -44 62 -43 1 2 -2 27 -8 56 -14 71 -12 152 4
228 7 34 12 62 11 62 -1 0 -14 -11 -29 -25z"/>
<path d="M2188 3288 c9 -43 9 -253 0 -296 l-8 -32 66 50 c74 56 125 85 199
110 l50 17 -40 13 c-69 22 -174 81 -226 127 l-49 45 8 -34z"/>
<path d="M3095 3274 c-51 -46 -151 -102 -220 -125 l-40 -13 40 -12 c63 -18
136 -58 208 -113 l65 -50 -9 37 c-11 49 -11 227 1 277 5 22 8 40 7 41 -1 1
-24 -18 -52 -42z"/>
<path d="M3327 3284 c11 -51 10 -250 -1 -293 l-8 -34 58 47 c62 51 154 102
218 121 l38 11 -58 22 c-73 26 -171 85 -220 131 l-35 34 8 -39z"/>
<path d="M1054 3289 c14 -47 19 -205 7 -258 -6 -30 -10 -55 -9 -57 2 -1 30 18
63 43 64 49 188 113 218 113 26 0 13 16 -20 25 -49 12 -147 65 -207 113 -53
41 -59 43 -52 21z"/>
<path d="M1955 3268 c-46 -38 -172 -105 -227 -122 -21 -7 -20 -9 18 -21 80
-25 182 -86 238 -141 l29 -29 -7 25 c-13 44 -18 233 -7 280 5 24 9 45 8 46 -1
1 -24 -16 -52 -38z"/>
<path d="M440 3110 c0 -14 79 -101 130 -143 25 -20 73 -51 108 -68 64 -30 213
-74 233 -67 31 10 -117 151 -221 211 -68 38 -250 88 -250 67z"/>
<path d="M1428 3110 c-113 -19 -199 -59 -300 -138 -61 -47 -135 -135 -119
-140 17 -6 180 37 224 59 74 38 153 97 197 146 44 51 66 84 53 82 -4 -1 -29
-5 -55 -9z"/>
<path d="M1576 3108 c40 -70 148 -164 242 -212 50 -25 214 -70 233 -64 14 5
-69 101 -126 146 -86 69 -198 117 -318 137 -31 5 -37 3 -31 -7z"/>
<path d="M2568 3110 c-76 -13 -148 -40 -221 -82 -69 -40 -174 -134 -196 -176
-12 -23 -12 -23 26 -17 150 25 277 91 374 193 38 39 69 77 69 82 0 6 -1 9 -2
9 -2 -1 -24 -5 -50 -9z"/>
<path d="M2710 3108 c0 -22 136 -150 199 -186 66 -40 159 -73 239 -87 41 -7
43 -6 34 11 -39 74 -182 187 -285 226 -68 26 -187 49 -187 36z"/>
<path d="M3614 3086 c-38 -12 -95 -36 -125 -52 -55 -30 -209 -171 -209 -193 0
-14 46 -8 137 19 80 25 135 53 205 107 52 40 128 121 128 137 0 13 -67 4 -136
-18z"/>
<path d="M375 3055 c-60 -145 -60 -345 1 -491 l16 -38 15 27 c26 51 53 179 53
257 0 78 -27 206 -53 257 l-15 27 -17 -39z"/>
<path d="M2642 3035 c-32 -87 -42 -141 -42 -225 0 -41 5 -95 10 -120 16 -69
52 -162 60 -153 4 4 18 37 30 73 45 130 38 315 -18 443 l-18 41 -22 -59z"/>
<path d="M3772 3035 c-12 -30 -27 -93 -33 -140 -14 -101 -1 -214 36 -310 l23
-60 22 48 c35 77 53 182 47 272 -6 79 -50 245 -66 245 -5 0 -18 -25 -29 -55z"/>
<path d="M1512 3053 c-62 -158 -62 -328 0 -485 6 -16 14 -28 17 -28 4 0 18 30
32 68 21 58 24 84 24 202 0 118 -3 144 -24 203 -14 37 -28 67 -32 67 -3 0 -11
-12 -17 -27z"/>
<path d="M486 2960 c11 -45 12 -254 0 -300 l-8 -35 38 37 c51 48 145 104 211
125 29 9 53 20 53 24 0 4 -15 11 -32 14 -53 11 -165 75 -220 124 l-50 45 8
-34z"/>
<path d="M2531 2948 c-53 -46 -149 -101 -208 -119 -24 -7 -43 -15 -43 -19 0
-4 18 -12 39 -18 55 -13 157 -72 216 -124 32 -28 46 -36 41 -23 -14 32 -19
246 -7 295 5 24 9 45 8 46 -1 1 -22 -16 -46 -38z"/>
<path d="M2757 2964 c10 -38 10 -270 0 -309 l-8 -30 33 31 c61 57 174 123 242
140 30 7 35 24 7 24 -34 0 -178 79 -231 127 -50 44 -51 45 -43 17z"/>
<path d="M1385 2938 c-47 -38 -174 -106 -227 -122 -21 -7 -20 -8 17 -20 64
-20 138 -61 209 -116 61 -47 65 -48 55 -23 -17 44 -22 192 -10 257 6 33 10 60
8 62 -1 1 -24 -16 -52 -38z"/>
<path d="M1624 2941 c15 -98 17 -160 4 -232 l-14 -76 66 50 c62 48 190 117
217 117 7 0 13 5 13 10 0 6 -6 10 -13 10 -27 0 -164 73 -221 118 l-59 46 7
-43z"/>
<path d="M3655 2938 c-49 -40 -196 -118 -222 -118 -24 0 -13 -18 15 -25 51
-12 131 -55 198 -106 56 -42 66 -47 60 -27 -14 46 -18 204 -7 257 6 30 10 55
9 57 -2 1 -25 -16 -53 -38z"/>
<path d="M870 2783 c-150 -25 -288 -102 -389 -218 l-45 -50 32 -3 c105 -10
313 100 411 217 54 64 54 65 -9 54z"/>
<path d="M1010 2777 c0 -33 146 -159 234 -204 89 -45 236 -79 236 -54 0 17
-119 129 -181 169 -88 58 -289 120 -289 89z"/>
<path d="M1990 2780 c-71 -13 -156 -46 -223 -87 -60 -36 -187 -154 -187 -174
0 -28 153 11 255 64 83 44 254 213 208 206 -5 -1 -28 -5 -53 -9z"/>
<path d="M2147 2777 c42 -72 145 -160 241 -207 71 -34 173 -62 211 -58 25 3
22 7 -54 84 -107 107 -225 167 -368 188 -27 3 -36 2 -30 -7z"/>
<path d="M3145 2783 c-130 -17 -255 -82 -360 -188 -76 -76 -79 -80 -54 -83 69
-8 231 56 326 130 63 48 151 151 126 147 -4 -1 -21 -4 -38 -6z"/>
<path d="M3280 2778 c0 -22 157 -164 215 -195 81 -42 265 -95 265 -75 0 4 -21
31 -46 60 -53 61 -127 118 -199 154 -83 42 -235 78 -235 56z"/>
<path d="M948 2735 c-65 -128 -64 -382 2 -506 13 -23 13 -23 32 20 10 24 26
85 34 135 19 107 8 217 -30 319 l-23 62 -15 -30z"/>
<path d="M2082 2733 c-40 -105 -47 -142 -47 -248 0 -88 5 -126 24 -188 13 -43
28 -80 33 -83 12 -7 45 74 59 146 17 85 6 249 -20 325 -27 75 -35 83 -49 48z"/>
<path d="M3222 2740 c-43 -109 -46 -125 -46 -260 0 -119 3 -142 25 -198 14
-35 29 -63 34 -63 20 3 56 136 62 227 6 98 -11 203 -46 279 -18 40 -19 40 -29
15z"/>
<path d="M820 2614 c-63 -50 -169 -109 -218 -119 -41 -9 -33 -17 35 -39 57
-19 146 -73 208 -127 22 -20 36 -27 32 -17 -28 75 -32 232 -7 317 5 17 8 31 7
30 -1 0 -27 -20 -57 -45z"/>
<path d="M1057 2614 c10 -63 10 -195 0 -257 l-8 -49 66 52 c71 54 135 89 199
110 l40 13 -61 22 c-69 25 -149 73 -206 124 l-39 35 9 -50z"/>
<path d="M1946 2609 c-58 -48 -109 -76 -195 -109 l-44 -17 39 -13 c64 -21 128
-56 199 -110 40 -30 65 -44 60 -33 -14 33 -18 218 -6 273 6 29 10 54 9 55 -2
1 -30 -20 -62 -46z"/>
<path d="M2192 2616 c13 -55 15 -167 5 -244 l-8 -64 23 22 c42 41 152 107 217
131 l64 23 -49 16 c-72 25 -125 54 -197 108 l-64 49 9 -41z"/>
<path d="M3096 2619 c-65 -53 -126 -88 -199 -114 l-61 -22 40 -13 c69 -22 174
-82 227 -129 31 -29 48 -38 43 -26 -14 32 -19 235 -8 293 5 28 9 52 8 51 0 0
-23 -18 -50 -40z"/>
<path d="M3327 2625 c10 -49 11 -238 1 -283 l-8 -32 66 50 c70 54 134 89 199
110 l40 13 -37 13 c-89 31 -175 81 -236 138 l-34 31 9 -40z"/>
<path d="M440 2452 c0 -20 114 -132 174 -171 73 -48 182 -89 259 -98 l52 -6
-45 53 c-101 121 -237 197 -402 225 -21 3 -38 2 -38 -3z"/>
<path d="M1380 2444 c-80 -21 -172 -67 -238 -118 -62 -47 -138 -133 -128 -143
9 -9 117 14 182 38 91 34 195 113 266 202 l30 37 -29 -1 c-15 0 -53 -7 -83
-15z"/>
<path d="M1578 2444 c16 -29 87 -100 139 -140 90 -69 249 -130 317 -122 l28 3
-61 67 c-98 107 -247 186 -382 204 -48 6 -51 6 -41 -12z"/>
<path d="M2490 2437 c-126 -38 -233 -108 -315 -207 l-38 -45 26 -3 c42 -5 166
33 242 75 68 37 215 168 215 192 0 17 -46 12 -130 -12z"/>
<path d="M2721 2438 c23 -44 139 -145 206 -181 75 -39 210 -80 246 -75 19 3
14 12 -50 79 -88 91 -187 151 -297 179 -44 11 -88 20 -98 20 -16 0 -17 -3 -7
-22z"/>
<path d="M3650 2444 c-108 -28 -218 -91 -297 -170 -40 -40 -73 -78 -73 -84 0
-26 160 13 255 63 58 31 196 152 216 189 8 15 6 18 -18 17 -15 0 -53 -7 -83
-15z"/>
<path d="M381 2411 c-7 -12 -21 -56 -31 -98 -33 -128 -24 -285 24 -398 20 -48
26 -42 58 60 31 99 31 261 0 360 -29 93 -37 104 -51 76z"/>
<path d="M1496 2352 c-32 -101 -41 -200 -26 -282 13 -77 48 -190 59 -190 4 0
18 30 32 68 21 59 24 84 24 207 0 123 -3 148 -24 208 -14 37 -28 67 -32 67 -5
0 -19 -35 -33 -78z"/>
<path d="M2642 2373 c-31 -84 -41 -139 -42 -219 0 -73 27 -202 54 -251 l15
-28 15 38 c52 123 59 311 17 437 -13 36 -26 69 -30 73 -5 5 -18 -18 -29 -50z"/>
<path d="M3772 2376 c-33 -87 -46 -203 -33 -294 12 -80 49 -202 62 -202 23 0
69 184 69 275 0 92 -46 275 -69 275 -5 0 -18 -24 -29 -54z"/>
<path d="M487 2294 c10 -50 10 -228 0 -276 l-8 -38 66 50 c74 56 126 85 200
110 l50 17 -35 8 c-55 12 -160 69 -224 120 l-57 47 8 -38z"/>
<path d="M1390 2289 c-48 -42 -175 -111 -225 -124 l-30 -7 25 -11 c100 -41
174 -81 224 -122 58 -47 59 -47 53 -19 -16 70 -19 184 -8 248 7 38 11 70 9 71
-2 2 -23 -15 -48 -36z"/>
<path d="M1627 2275 c10 -76 10 -164 0 -239 l-9 -59 54 47 c46 40 138 92 216
123 22 8 18 11 -43 36 -74 31 -142 73 -193 121 l-34 31 9 -60z"/>
<path d="M2535 2294 c-50 -43 -148 -99 -210 -121 l-48 -16 60 -22 c77 -28 136
-62 197 -116 32 -29 47 -37 42 -24 -14 32 -19 236 -7 285 5 24 9 45 8 46 -1 1
-20 -13 -42 -32z"/>
<path d="M2761 2292 c11 -47 11 -226 0 -273 l-8 -36 66 50 c57 44 113 74 211
114 24 10 24 11 5 18 -85 29 -151 63 -212 109 l-71 55 9 -37z"/>
<path d="M3662 2290 c-38 -34 -171 -107 -227 -126 -19 -6 -18 -7 5 -17 96 -39
153 -70 205 -110 33 -25 61 -44 63 -43 1 2 -2 27 -8 56 -13 68 -13 142 1 214
6 32 9 59 7 61 -2 2 -22 -14 -46 -35z"/>
<path d="M810 2114 c-76 -20 -168 -65 -232 -112 -57 -42 -145 -139 -135 -149
13 -12 162 31 235 67 86 43 140 86 202 160 l42 50 -29 -1 c-15 0 -53 -7 -83
-15z"/>
<path d="M1010 2122 c0 -21 137 -147 201 -185 64 -38 156 -69 238 -82 l45 -7
-33 41 c-47 59 -132 132 -192 165 -92 50 -259 93 -259 68z"/>
<path d="M1910 2106 c-36 -12 -88 -35 -117 -49 -54 -28 -168 -128 -205 -180
l-21 -29 44 7 c83 13 174 44 238 82 66 40 169 132 190 171 11 21 10 22 -26 21
-21 0 -67 -10 -103 -23z"/>
<path d="M2159 2102 c41 -58 151 -151 220 -185 72 -36 204 -72 238 -65 28 6
-137 166 -212 205 -79 41 -179 73 -227 73 l-39 0 20 -28z"/>
<path d="M3035 2102 c-99 -33 -208 -105 -275 -180 -27 -31 -50 -60 -50 -65 0
-12 77 0 154 24 34 10 90 36 124 57 62 37 174 138 193 174 9 16 5 18 -28 18
-21 0 -74 -13 -118 -28z"/>
<path d="M3285 2119 c41 -70 138 -155 232 -202 55 -28 183 -67 221 -67 20 0
22 2 11 22 -23 42 -123 134 -189 172 -78 46 -155 74 -229 83 -45 5 -53 4 -46
-8z"/>
<path d="M2082 2083 c-67 -177 -68 -357 -3 -498 l19 -40 20 47 c50 114 56 324
12 443 -29 76 -35 83 -48 48z"/>
<path d="M948 2075 c-62 -121 -63 -348 -2 -490 l17 -40 15 35 c62 146 64 343
5 480 l-20 45 -15 -30z"/>
<path d="M3199 2033 c-21 -60 -24 -84 -23 -208 0 -122 3 -148 23 -200 13 -33
27 -64 31 -69 13 -13 60 149 67 229 3 40 1 101 -6 139 -13 73 -48 176 -60 176
-4 0 -18 -30 -32 -67z"/>
<path d="M859 1994 c-41 -49 -167 -122 -274 -159 -16 -5 -7 -11 41 -29 79 -29
147 -69 201 -119 24 -22 45 -38 48 -35 2 2 -1 22 -7 44 -6 21 -11 82 -11 134
0 52 5 113 11 134 13 46 11 54 -9 30z"/>
<path d="M1057 1959 c11 -58 10 -213 -1 -269 l-8 -45 33 31 c52 49 144 104
217 129 64 22 66 24 37 31 -65 16 -169 73 -243 132 l-43 35 8 -44z"/>
<path d="M1970 1973 c-40 -40 -121 -89 -199 -119 l-72 -28 48 -17 c74 -25 132
-57 200 -110 l62 -49 -7 33 c-9 42 -9 242 0 285 9 38 2 39 -32 5z"/>
<path d="M2197 1944 c10 -76 10 -165 0 -234 l-8 -55 28 26 c44 42 142 101 208
126 54 20 57 23 35 29 -54 16 -179 86 -224 125 l-46 41 7 -58z"/>
<path d="M3092 1960 c-38 -34 -172 -108 -227 -125 -16 -5 -7 -12 40 -29 65
-24 163 -83 208 -124 15 -14 27 -24 27 -21 0 2 -5 42 -10 87 -8 59 -8 107 0
164 6 44 10 81 8 83 -2 2 -22 -14 -46 -35z"/>
<path d="M3327 1963 c10 -50 10 -227 0 -277 l-9 -40 40 36 c49 44 141 99 213
126 44 16 50 22 34 27 -81 28 -157 68 -216 113 l-70 53 8 -38z"/>
<path d="M2553 1799 c-69 -12 -171 -53 -241 -98 -56 -37 -172 -153 -172 -172
0 -27 210 34 286 83 98 63 232 204 187 197 -5 -1 -31 -5 -60 -10z"/>
<path d="M2710 1797 c0 -5 35 -44 78 -86 89 -89 180 -141 298 -171 124 -32
127 -28 57 51 -66 72 -148 131 -237 168 -78 32 -196 55 -196 38z"/>
<path d="M450 1780 c20 -38 124 -132 184 -169 63 -38 165 -74 240 -85 l49 -8
-21 29 c-33 46 -109 119 -158 152 -67 44 -189 92 -252 98 -54 6 -54 6 -42 -17z"/>
<path d="M1335 1772 c-45 -15 -107 -43 -139 -62 -54 -33 -168 -139 -189 -176
-9 -15 -5 -16 39 -9 78 11 165 42 234 82 63 37 200 162 200 183 0 18 -63 10
-145 -18z"/>
<path d="M1580 1794 c0 -4 16 -26 36 -50 43 -53 131 -122 199 -157 78 -39 235
-78 235 -59 0 17 -92 113 -144 151 -72 51 -121 76 -200 100 -67 21 -126 27
-126 15z"/>
<path d="M3605 1772 c-45 -15 -107 -43 -139 -62 -62 -38 -206 -182 -187 -188
26 -9 167 32 242 69 78 39 178 122 220 180 l20 29 -38 0 c-21 0 -74 -13 -118
-28z"/>
<path d="M2642 1725 c-51 -133 -54 -285 -7 -425 15 -44 30 -78 35 -75 4 2 18
37 31 77 20 62 24 93 24 203 0 110 -4 140 -23 197 -13 37 -27 70 -31 73 -5 2
-18 -20 -29 -50z"/>
<path d="M3796 1770 c-68 -181 -72 -333 -16 -483 12 -31 25 -55 29 -52 4 2 19
39 32 82 33 107 33 267 1 366 -28 88 -39 108 -46 87z"/>
<path d="M375 1741 c-59 -115 -57 -370 4 -489 l18 -36 21 55 c33 89 45 172 39
267 -5 84 -38 215 -57 227 -5 3 -16 -8 -25 -24z"/>
<path d="M1499 1703 c-44 -135 -35 -344 18 -448 l16 -30 18 41 c36 86 53 253
34 347 -10 51 -48 157 -56 157 -5 0 -18 -30 -30 -67z"/>
<path d="M1391 1634 c-54 -45 -142 -94 -211 -119 -31 -11 -32 -14 -15 -20 72
-26 187 -89 227 -124 25 -23 48 -41 51 -41 3 0 0 17 -6 38 -6 20 -11 82 -11
137 0 55 5 117 11 138 6 20 11 37 10 36 -1 0 -26 -20 -56 -45z"/>
<path d="M2529 1636 c-50 -46 -150 -102 -213 -122 -34 -10 -38 -13 -21 -19 96
-35 200 -95 259 -150 28 -26 29 -26 21 -3 -14 43 -18 237 -6 284 7 26 11 48 9
49 -2 2 -24 -16 -49 -39z"/>
<path d="M3665 1634 c-50 -45 -196 -124 -228 -124 -9 0 -17 -4 -17 -10 0 -5 8
-10 17 -10 33 0 179 -80 232 -127 47 -41 54 -44 47 -23 -13 46 -18 224 -8 280
6 30 10 56 9 56 -1 1 -24 -18 -52 -42z"/>
<path d="M486 1653 c13 -30 17 -236 5 -278 -6 -21 -9 -41 -6 -43 2 -3 26 14
52 38 44 38 194 120 221 120 7 0 12 5 12 10 0 6 -6 10 -14 10 -27 0 -181 84
-222 122 -45 41 -61 48 -48 21z"/>
<path d="M1626 1619 c11 -67 11 -168 1 -236 l-8 -53 66 50 c75 57 121 82 183
100 23 7 42 16 42 19 0 3 -33 18 -73 33 -43 16 -102 50 -146 84 l-73 56 8 -53z"/>
<path d="M2766 1634 c10 -53 11 -187 1 -252 l-8 -54 48 40 c58 48 143 96 201
113 44 13 56 29 23 29 -30 0 -169 75 -224 121 l-48 41 7 -38z"/>
<path d="M845 1469 c-118 -20 -243 -89 -336 -184 -55 -57 -74 -83 -66 -91 13
-13 189 40 257 78 70 38 220 174 220 199 0 10 -5 10 -75 -2z"/>
<path d="M1010 1469 c0 -24 157 -165 217 -197 91 -48 263 -94 263 -70 0 19
-158 166 -210 195 -98 54 -270 100 -270 72z"/>
<path d="M1995 1473 c-139 -18 -346 -146 -407 -250 l-17 -30 48 8 c78 12 150
36 220 75 64 34 161 120 202 177 23 30 24 29 -46 20z"/>
<path d="M2149 1463 c42 -79 195 -196 304 -232 73 -25 167 -42 167 -31 0 14
-74 97 -118 133 -86 72 -208 126 -320 141 -39 6 -42 5 -33 -11z"/>
<path d="M3121 1469 c-124 -21 -253 -93 -349 -194 -65 -68 -66 -70 -40 -73 69
-8 229 56 324 129 62 47 151 151 127 148 -4 -1 -32 -5 -62 -10z"/>
<path d="M3280 1468 c0 -23 157 -164 217 -196 89 -47 263 -94 263 -71 0 22
-135 148 -198 186 -94 56 -282 110 -282 81z"/>
<path d="M2072 1398 c-54 -146 -55 -300 0 -445 11 -29 23 -51 28 -48 5 3 19
36 32 73 19 56 23 87 23 192 0 105 -4 136 -24 195 -13 39 -27 74 -31 78 -4 5
-17 -15 -28 -45z"/>
<path d="M3218 1420 c-38 -91 -43 -117 -43 -245 0 -110 4 -141 24 -202 13 -40
27 -73 31 -73 25 0 70 178 70 276 0 72 -27 201 -53 251 l-15 27 -14 -34z"/>
<path d="M942 1413 c-32 -82 -46 -154 -46 -243 0 -61 6 -117 18 -155 23 -79
37 -115 46 -115 4 0 18 30 30 68 42 121 39 309 -7 430 -18 49 -27 52 -41 15z"/>
<path d="M1057 1293 c4 -32 8 -85 8 -118 0 -33 -4 -86 -8 -118 l-9 -59 57 46
c58 48 142 94 210 116 l40 13 -35 12 c-67 23 -159 75 -215 121 l-57 46 9 -59z"/>
<path d="M1959 1307 c-46 -42 -139 -94 -214 -120 l-40 -14 40 -13 c65 -21 129
-56 200 -110 40 -30 65 -44 60 -33 -14 33 -18 218 -6 273 6 29 10 54 9 55 -2
2 -24 -16 -49 -38z"/>
<path d="M2188 1318 c9 -43 9 -253 -1 -298 l-7 -34 37 36 c48 47 165 115 221
130 54 13 61 25 20 33 -47 10 -173 79 -230 126 l-48 41 8 -34z"/>
<path d="M3096 1309 c-64 -53 -126 -88 -200 -115 -49 -18 -57 -24 -41 -30 123
-45 187 -81 257 -143 l36 -31 -10 42 c-13 56 -13 221 0 276 5 23 9 42 8 41 0
0 -23 -18 -50 -40z"/>
<path d="M3325 1335 c4 -11 10 -68 13 -126 4 -96 -4 -170 -24 -224 -5 -12 14
0 48 31 58 53 189 127 246 139 38 8 35 20 -7 28 -65 13 -183 79 -250 141 -26
24 -32 26 -26 11z"/>
<path d="M815 1298 c-46 -38 -172 -105 -227 -122 -21 -7 -19 -9 19 -21 67 -21
161 -75 213 -122 26 -24 50 -43 53 -43 2 0 -2 26 -9 58 -16 68 -18 159 -4 232
6 29 9 54 8 56 -2 1 -25 -16 -53 -38z"/>
<path d="M440 1137 c0 -21 149 -156 210 -190 75 -41 196 -80 236 -75 l27 3
-42 49 c-100 115 -237 192 -380 215 -32 5 -51 4 -51 -2z"/>
<path d="M1362 1131 c-114 -33 -190 -79 -282 -171 -84 -84 -85 -85 -55 -88 44
-5 151 26 230 67 68 35 176 126 216 183 l20 28 -33 -1 c-18 0 -61 -9 -96 -18z"/>
<path d="M1580 1140 c0 -5 33 -43 74 -84 54 -54 96 -85 155 -114 76 -38 225
-81 238 -68 9 9 -65 94 -121 138 -62 50 -191 112 -264 127 -65 14 -82 14 -82
1z"/>
<path d="M2543 1140 c-119 -24 -248 -98 -341 -195 -78 -80 -73 -87 41 -60 111
27 220 88 305 171 95 94 95 103 -5 84z"/>
<path d="M2729 1121 c88 -124 255 -222 416 -247 l49 -7 -33 41 c-85 108 -231
198 -367 227 -90 19 -89 20 -65 -14z"/>
<path d="M3630 1117 c-41 -13 -100 -36 -130 -52 -55 -30 -183 -142 -202 -178
-9 -18 -7 -19 34 -12 77 13 162 44 226 82 61 36 192 155 192 174 0 14 -40 10
-120 -14z"/>
<path d="M1494 1038 c-44 -138 -34 -331 23 -443 l16 -30 20 45 c10 25 26 86
35 137 14 78 14 104 4 178 -13 89 -47 195 -62 195 -5 0 -21 -37 -36 -82z"/>
<path d="M2642 1067 c-40 -106 -51 -223 -32 -328 13 -71 51 -172 60 -162 4 4
18 37 31 73 33 94 34 284 1 387 -12 40 -26 75 -31 78 -5 3 -18 -19 -29 -48z"/>
<path d="M1414 999 c-40 -44 -169 -121 -243 -144 -22 -7 -19 -10 35 -29 63
-24 161 -82 208 -125 l29 -26 -7 25 c-14 56 -18 180 -7 244 7 38 10 70 8 72
-2 2 -12 -5 -23 -17z"/>
<path d="M1624 998 c14 -49 18 -204 7 -257 -6 -30 -9 -56 -7 -59 3 -2 26 14
53 36 57 48 127 88 197 112 41 14 47 19 31 25 -85 29 -151 63 -214 111 -61 46
-72 51 -67 32z"/>
<path d="M2520 973 c-56 -45 -170 -105 -225 -118 -30 -7 -30 -7 20 -25 77 -27
134 -58 204 -113 40 -31 61 -43 56 -31 -13 31 -18 235 -6 284 5 24 9 45 8 46
-1 1 -27 -19 -57 -43z"/>
<path d="M2762 983 c11 -41 6 -268 -7 -297 -5 -12 18 1 59 33 74 57 125 85
200 111 l49 18 -39 12 c-64 21 -171 80 -218 121 -24 22 -46 39 -49 39 -3 0 -1
-17 5 -37z"/>
<path d="M1019 792 c37 -53 146 -147 206 -179 99 -52 265 -91 265 -62 0 23
-156 165 -215 196 -81 42 -179 73 -232 73 l-44 0 20 -28z"/>
<path d="M1915 796 c-118 -38 -174 -73 -265 -164 -97 -97 -95 -105 24 -77 111
27 219 88 304 172 39 40 72 77 72 83 0 17 -60 11 -135 -14z"/>
<path d="M2160 791 c37 -52 140 -138 208 -174 88 -46 252 -91 252 -69 0 22
-119 136 -186 178 -79 49 -202 94 -260 94 l-35 0 21 -29z"/>
<path d="M3034 791 c-100 -34 -208 -105 -266 -172 -42 -49 -63 -79 -55 -79 28
0 137 27 187 47 102 41 213 124 271 206 l20 27 -38 0 c-21 0 -75 -13 -119 -29z"/>
<path d="M2079 764 c-46 -122 -60 -252 -40 -360 13 -68 51 -168 61 -157 4 4
18 37 31 73 19 55 23 85 23 195 1 111 -2 140 -22 197 -13 37 -28 70 -33 73 -5
4 -14 -6 -20 -21z"/>
<path d="M2184 685 c13 -31 19 -234 8 -292 l-9 -52 63 50 c61 49 197 119 229
119 9 0 13 5 10 10 -3 6 -14 10 -23 10 -32 0 -178 80 -232 127 -33 30 -51 40
-46 28z"/>
<path d="M1950 643 c-49 -39 -159 -99 -215 -118 -16 -5 -9 -10 33 -25 60 -21
138 -67 198 -116 l42 -34 -9 38 c-11 49 -11 207 1 257 5 22 8 40 7 41 -1 1
-27 -19 -57 -43z"/>
<path d="M1580 490 c0 -21 72 -100 134 -146 87 -66 199 -112 309 -128 l37 -5
-17 31 c-29 49 -138 143 -211 181 -94 50 -252 91 -252 67z"/>
<path d="M2474 466 c-100 -32 -187 -88 -266 -169 -38 -38 -68 -72 -68 -77 0
-23 162 20 254 68 69 36 168 119 207 173 l20 29 -38 0 c-21 -1 -70 -11 -109
-24z"/>
</g>
</svg>
