<?xml version="1.0" standalone="no"?>
<!DOCTYPE svg PUBLIC "-//W3C//DTD SVG 20010904//EN"
 "http://www.w3.org/TR/2001/REC-SVG-20010904/DTD/svg10.dtd">
<svg version="1.0" xmlns="http://www.w3.org/2000/svg"
 width="376.000000pt" height="376.000000pt" viewBox="0 0 376.000000 376.000000"
 preserveAspectRatio="xMidYMid meet">
<metadata>
Created by potrace 1.11, written by Peter Selinger 2001-2013
</metadata>
<g transform="translate(0.000000,376.000000) scale(0.100000,-0.100000)"
fill="#000000" stroke="none">
<path d="M98 3753 l-98 -4 0 -101 0 -102 26 52 c28 57 90 116 141 134 18 7 33
16 33 20 0 4 -1 7 -2 6 -2 -1 -47 -4 -100 -5z"/>
<path d="M360 3750 c0 -4 15 -11 33 -18 53 -19 113 -78 143 -139 33 -67 38
-164 11 -226 l-17 -38 24 18 c13 10 57 45 98 79 41 33 106 80 146 105 39 24
71 47 72 51 0 3 -22 43 -48 87 l-48 82 -207 2 c-114 1 -207 0 -207 -3z"/>
<path d="M820 3748 c0 -12 85 -148 90 -145 31 19 227 109 268 123 28 10 52 21
52 24 0 3 -92 5 -205 5 -113 0 -205 -3 -205 -7z"/>
<path d="M2530 3750 c0 -3 24 -14 53 -24 40 -14 236 -104 267 -123 5 -3 90
133 90 145 0 4 -92 7 -205 7 -113 0 -205 -2 -205 -5z"/>
<path d="M2939 3672 c-27 -46 -49 -87 -49 -90 1 -4 33 -27 72 -51 40 -25 105
-72 146 -105 41 -34 85 -69 98 -79 l24 -18 -17 38 c-27 62 -22 159 11 226 30
61 90 120 143 139 18 7 33 14 33 18 0 3 -93 5 -206 5 l-206 0 -49 -83z"/>
<path d="M3560 3750 c0 -4 15 -11 33 -18 51 -18 113 -77 141 -134 l26 -52 0
101 0 102 -100 3 c-55 2 -100 1 -100 -2z"/>
<path d="M1680 3723 c-77 -8 -260 -46 -260 -53 0 -15 24 -16 77 -4 55 13 178
29 296 40 37 3 67 10 67 15 0 9 -106 10 -180 2z"/>
<path d="M1900 3722 c0 -6 30 -13 68 -16 118 -11 240 -27 296 -40 47 -11 90
-7 76 8 -3 2 -54 14 -115 26 -131 25 -325 38 -325 22z"/>
<path d="M180 3709 c-45 -18 -90 -60 -120 -112 -36 -62 -38 -78 -7 -49 29 27
70 42 97 35 19 -5 21 -3 16 14 -8 25 9 71 36 101 23 24 17 27 -22 11z"/>
<path d="M358 3698 c27 -30 44 -76 36 -100 -4 -15 -1 -19 13 -18 43 5 64 -2
98 -31 l35 -31 -16 39 c-25 60 -61 101 -117 133 -62 36 -78 38 -49 8z"/>
<path d="M3353 3690 c-56 -32 -92 -73 -117 -133 l-16 -39 35 31 c34 29 55 36
98 31 14 -1 17 3 13 18 -8 24 9 70 36 100 29 30 13 28 -49 -8z"/>
<path d="M3557 3699 c28 -31 45 -77 37 -102 -5 -17 -3 -19 16 -14 27 7 68 -8
98 -35 31 -30 28 -11 -10 52 -33 54 -90 102 -138 115 l-25 7 22 -23z"/>
<path d="M243 3700 c-32 -13 -55 -54 -51 -92 2 -24 7 -32 18 -28 17 5 106 5
135 -1 17 -3 21 2 23 32 5 65 -64 115 -125 89z"/>
<path d="M3443 3700 c-32 -13 -55 -54 -51 -92 2 -27 7 -32 23 -29 29 6 118 6
135 1 11 -4 16 4 18 31 5 65 -64 115 -125 89z"/>
<path d="M1710 3661 c-38 -37 -45 -70 -26 -115 11 -27 26 -42 55 -54 28 -12
42 -26 51 -49 12 -34 53 -63 90 -63 37 0 78 29 90 63 9 23 23 37 51 49 29 12
44 27 55 54 19 45 12 78 -26 115 -38 39 -95 40 -139 3 l-31 -26 -31 26 c-44
37 -101 36 -139 -3z"/>
<path d="M1285 3634 c-134 -46 -315 -133 -308 -149 3 -9 37 2 116 40 62 29
148 66 192 81 74 25 115 48 104 58 -2 2 -49 -11 -104 -30z"/>
<path d="M2370 3660 c0 -14 24 -26 105 -54 44 -15 130 -52 192 -81 79 -38 113
-49 116 -40 4 8 -33 30 -101 64 -135 64 -312 128 -312 111z"/>
<path d="M1565 3633 c-81 -10 -81 -12 -7 -48 38 -18 73 -38 76 -44 14 -22 25
-11 15 16 -5 14 -7 39 -4 55 7 30 2 32 -80 21z"/>
<path d="M2114 3613 c4 -16 2 -42 -3 -56 -10 -27 1 -38 15 -16 3 6 38 26 76
44 76 37 74 39 -31 50 l-63 7 6 -29z"/>
<path d="M1325 3574 c-16 -7 -52 -23 -79 -34 -43 -18 -47 -22 -32 -33 9 -7 23
-30 31 -52 8 -22 14 -35 15 -29 0 6 22 46 50 88 27 42 49 76 47 75 -1 0 -15
-7 -32 -15z"/>
<path d="M2451 3513 c27 -42 49 -81 49 -87 1 -6 7 7 15 29 8 22 22 45 31 52
15 11 13 14 -22 29 -21 9 -58 24 -81 34 l-41 18 49 -75z"/>
<path d="M244 3561 c-30 -13 -64 -59 -64 -88 0 -34 28 -79 57 -92 39 -18 71
-13 105 18 27 24 33 36 33 70 0 67 -71 117 -131 92z"/>
<path d="M1407 3559 c-23 -13 -47 -62 -47 -94 0 -17 -5 -25 -17 -25 -37 -1
-73 -48 -73 -95 0 -16 12 -38 30 -57 28 -27 36 -30 75 -25 38 4 45 2 45 -13 0
-32 49 -70 92 -70 54 0 88 35 88 89 0 35 4 41 25 47 31 8 75 59 75 87 0 12 -9
36 -20 54 -20 34 -69 51 -108 39 -15 -5 -22 -1 -27 13 -15 49 -92 77 -138 50z"/>
<path d="M2247 3550 c-14 -11 -29 -30 -32 -41 -5 -14 -12 -18 -27 -13 -39 12
-88 -5 -108 -39 -11 -18 -20 -42 -20 -54 0 -28 44 -79 75 -87 21 -6 25 -12 25
-47 0 -54 34 -89 88 -89 43 0 92 38 92 70 0 15 7 17 45 13 39 -5 47 -2 75 25
18 19 30 41 30 57 0 47 -36 94 -72 95 -13 0 -18 8 -18 25 0 34 -25 82 -49 95
-31 16 -76 12 -104 -10z"/>
<path d="M3445 3561 c-37 -16 -60 -51 -60 -93 0 -33 6 -45 33 -69 49 -44 112
-35 145 21 24 41 21 75 -10 110 -30 32 -75 45 -108 31z"/>
<path d="M69 3531 c-39 -40 -39 -82 0 -122 21 -21 39 -29 64 -29 18 0 36 2 39
5 3 3 -1 24 -8 45 -12 34 -12 46 0 80 7 21 11 42 8 45 -3 3 -21 5 -39 5 -25 0
-43 -8 -64 -29z"/>
<path d="M385 3550 c-4 -6 -1 -17 5 -25 11 -13 11 -86 -1 -125 -8 -28 64 -25
97 3 62 54 22 157 -61 157 -19 0 -37 -5 -40 -10z"/>
<path d="M1550 3541 c6 -12 18 -21 26 -21 19 0 10 16 -17 31 -19 10 -20 9 -9
-10z"/>
<path d="M2189 3540 c-20 -16 -21 -19 -7 -20 10 0 22 9 28 20 13 25 8 25 -21
0z"/>
<path d="M3273 3536 c-40 -34 -39 -98 1 -133 33 -28 105 -31 97 -3 -12 39 -12
112 -1 125 33 40 -52 49 -97 11z"/>
<path d="M3588 3555 c-3 -3 1 -24 8 -45 12 -34 12 -46 0 -80 -7 -21 -11 -42
-8 -45 3 -3 21 -5 39 -5 46 0 93 46 93 90 0 44 -47 90 -93 90 -18 0 -36 -2
-39 -5z"/>
<path d="M1325 3490 c-13 -25 -13 -30 -1 -30 8 0 16 13 18 30 3 17 3 30 2 30
-2 0 -10 -13 -19 -30z"/>
<path d="M2418 3490 c2 -17 10 -30 18 -30 12 0 12 5 -1 30 -9 17 -17 30 -19
30 -1 0 -1 -13 2 -30z"/>
<path d="M1051 3484 c-18 -15 -33 -39 -37 -59 -5 -30 -9 -33 -24 -25 -82 44
-182 -48 -146 -133 21 -51 56 -71 111 -64 26 4 45 3 45 -3 0 -13 55 -40 82
-40 63 0 127 87 100 136 -8 16 -6 24 13 42 29 28 37 69 20 108 -28 67 -108 85
-164 38z"/>
<path d="M2581 3494 c-51 -36 -59 -114 -16 -156 19 -18 21 -26 13 -42 -27 -49
37 -136 100 -136 27 0 82 27 82 40 0 6 19 7 45 3 55 -7 90 13 111 64 36 85
-64 177 -146 133 -15 -8 -19 -5 -24 25 -14 70 -107 109 -165 69z"/>
<path d="M849 3419 c-68 -47 -149 -111 -239 -188 -30 -26 -32 -30 -14 -31 11
0 52 27 90 60 38 34 113 91 166 127 84 57 109 83 79 83 -4 0 -41 -23 -82 -51z"/>
<path d="M2816 3462 c-3 -5 38 -39 92 -75 53 -36 128 -93 166 -127 38 -33 79
-60 90 -60 18 1 16 5 -14 31 -126 109 -301 239 -321 239 -4 0 -10 -4 -13 -8z"/>
<path d="M29 3397 c30 -78 82 -136 147 -163 44 -19 48 -18 24 6 -28 28 -42 69
-35 97 5 21 3 23 -18 18 -31 -8 -72 9 -103 42 l-25 27 10 -27z"/>
<path d="M1720 3402 c0 -13 -5 -32 -10 -43 -8 -14 -7 -19 2 -19 16 0 68 -51
68 -67 0 -11 60 -44 68 -38 8 7 -50 105 -87 145 -36 40 -40 43 -41 22z"/>
<path d="M1996 3379 c-35 -40 -92 -137 -84 -144 8 -6 68 26 68 37 0 17 51 68
67 68 8 0 11 5 7 12 -4 6 -10 25 -13 41 l-7 30 -38 -44z"/>
<path d="M3721 3401 c-15 -26 -78 -54 -107 -47 -22 6 -24 4 -19 -17 7 -28 -7
-69 -35 -97 -24 -24 -20 -25 24 -6 64 27 117 85 146 161 11 29 5 33 -9 6z"/>
<path d="M514 3397 c-8 -23 -72 -50 -100 -43 -22 6 -24 4 -24 -33 0 -31 -7
-49 -32 -77 l-32 -36 40 17 c60 25 106 66 137 124 16 29 26 55 23 58 -3 3 -8
-1 -12 -10z"/>
<path d="M3230 3404 c0 -5 13 -31 28 -58 30 -55 77 -97 136 -121 l40 -17 -32
36 c-25 28 -32 46 -32 77 0 36 -2 39 -23 34 -29 -8 -69 8 -96 36 -12 13 -21
19 -21 13z"/>
<path d="M0 3183 l0 -202 86 -51 c47 -29 87 -50 88 -49 2 2 20 31 41 64 34 53
106 151 180 241 l25 31 -57 -20 c-71 -23 -142 -18 -212 17 -52 27 -116 91
-137 140 -12 28 -13 9 -14 -171z"/>
<path d="M3746 3357 c-9 -38 -84 -116 -137 -142 -69 -36 -141 -42 -212 -18
l-57 20 25 -31 c74 -90 146 -188 180 -241 21 -33 39 -62 41 -64 1 -1 41 20 88
49 l86 51 0 200 c0 109 -2 199 -4 199 -2 0 -6 -10 -10 -23z"/>
<path d="M195 3362 c-3 -3 -5 -21 -5 -39 0 -46 46 -93 90 -93 44 0 90 47 90
93 0 18 -2 36 -5 39 -3 3 -24 -1 -45 -8 -34 -12 -46 -12 -80 0 -21 7 -42 11
-45 8z"/>
<path d="M3395 3362 c-3 -3 -5 -21 -5 -39 0 -46 46 -93 90 -93 44 0 90 47 90
93 0 18 -2 36 -5 39 -3 3 -24 -1 -45 -8 -34 -12 -46 -12 -80 0 -21 7 -42 11
-45 8z"/>
<path d="M1854 3303 c12 -23 23 -42 26 -42 3 0 14 19 26 42 l21 42 -47 0 -47
0 21 -42z"/>
<path d="M1657 3302 c-10 -10 -17 -35 -17 -56 0 -30 -7 -44 -35 -70 -34 -32
-49 -86 -25 -86 6 0 10 -10 10 -23 0 -20 86 -358 93 -362 1 -1 20 -7 43 -13
23 -7 62 -28 88 -48 l47 -36 -2 287 c-2 268 -3 289 -21 307 -10 10 -32 21 -48
25 -21 4 -32 13 -36 29 -7 25 -48 64 -69 64 -6 0 -19 -8 -28 -18z"/>
<path d="M2037 3300 c-13 -11 -27 -30 -31 -44 -4 -16 -15 -25 -36 -29 -16 -4
-38 -15 -48 -25 -18 -18 -19 -39 -21 -307 l-2 -287 47 36 c26 20 65 41 88 48
23 6 42 12 43 13 7 4 93 342 93 362 0 13 5 23 10 23 24 0 9 54 -25 86 -28 26
-35 40 -35 72 0 25 -7 45 -18 55 -24 22 -34 21 -65 -3z"/>
<path d="M1247 3304 c-12 -20 -30 -172 -23 -199 7 -26 8 -27 20 -9 7 10 15 43
18 72 3 29 13 61 22 71 15 16 15 21 3 28 -7 4 -18 16 -24 27 -6 10 -13 15 -16
10z"/>
<path d="M2495 3291 c-3 -11 -13 -22 -22 -25 -14 -6 -14 -8 2 -26 10 -12 20
-42 23 -72 3 -29 11 -62 18 -72 12 -18 13 -17 20 9 8 31 -13 192 -26 200 -5 3
-11 -3 -15 -14z"/>
<path d="M732 3240 l-63 -49 94 2 94 2 -23 28 c-13 16 -24 37 -24 48 0 27 -7
24 -78 -31z"/>
<path d="M2950 3271 c0 -11 -11 -32 -24 -48 l-23 -28 94 -2 94 -2 -65 50 c-36
27 -68 49 -71 49 -3 0 -5 -9 -5 -19z"/>
<path d="M1300 3196 c-7 -15 -10 -39 -7 -59 4 -28 1 -39 -19 -58 -29 -27 -31
-68 -4 -92 11 -9 20 -24 20 -33 0 -15 180 -336 223 -398 l20 -29 27 60 c15 33
39 68 53 80 l26 20 -45 164 c-24 90 -51 176 -60 192 -8 15 -12 32 -9 38 12 18
-36 59 -69 59 -25 1 -37 9 -58 40 -34 49 -76 55 -98 16z"/>
<path d="M2362 3180 c-21 -31 -33 -39 -58 -40 -33 0 -81 -41 -69 -59 3 -6 -1
-23 -9 -38 -9 -16 -36 -102 -60 -192 l-45 -164 26 -20 c14 -12 38 -47 53 -80
l27 -60 20 29 c43 62 223 383 223 398 0 9 9 24 20 33 27 24 25 65 -4 92 -20
19 -23 30 -19 58 8 48 -13 83 -49 83 -22 0 -35 -9 -56 -40z"/>
<path d="M487 3102 c-94 -106 -204 -269 -191 -282 7 -7 27 15 62 67 28 43 85
119 126 168 42 50 76 98 76 108 0 9 -1 17 -2 17 -2 0 -34 -35 -71 -78z"/>
<path d="M1175 3160 c-10 -11 -30 -24 -45 -28 -26 -7 -26 -7 21 -38 l46 -31
-1 59 c-1 32 -1 58 -2 58 0 0 -9 -9 -19 -20z"/>
<path d="M2564 3121 l-1 -58 46 31 c45 30 46 31 23 38 -14 4 -34 16 -46 27
l-21 20 -1 -58z"/>
<path d="M3200 3165 c1 -11 34 -60 76 -110 41 -49 98 -125 126 -168 34 -50 55
-74 61 -68 16 16 -96 177 -227 326 -29 32 -36 36 -36 20z"/>
<path d="M763 3149 c14 -8 22 -8 30 0 8 8 3 11 -18 11 -26 -1 -28 -2 -12 -11z"/>
<path d="M853 3151 c-13 -3 -32 -14 -43 -24 -19 -16 -23 -16 -43 -2 -35 24
-90 19 -121 -11 -30 -31 -35 -86 -10 -122 8 -12 10 -22 5 -22 -15 0 -41 -54
-41 -85 0 -16 12 -39 30 -57 27 -27 36 -30 73 -25 24 3 48 14 57 25 15 19 15
19 43 -1 83 -62 185 23 138 116 -18 35 -18 36 1 54 10 11 21 35 24 55 5 29 1
40 -22 66 -32 34 -58 43 -91 33z"/>
<path d="M1530 3151 c0 -17 18 -21 24 -6 3 9 0 15 -9 15 -8 0 -15 -4 -15 -9z"/>
<path d="M2206 3145 c4 -8 10 -12 15 -9 14 8 10 24 -6 24 -9 0 -12 -6 -9 -15z"/>
<path d="M2854 3150 c-12 -4 -31 -21 -44 -37 -26 -33 -22 -85 8 -116 19 -18
19 -19 1 -54 -47 -93 55 -178 138 -116 28 20 28 20 43 1 9 -11 33 -22 57 -25
37 -5 46 -2 73 25 18 18 30 41 30 57 0 31 -26 85 -41 85 -5 0 -3 10 5 22 25
36 20 91 -10 122 -31 30 -86 35 -122 11 -20 -15 -24 -14 -44 5 -12 11 -27 20
-34 20 -7 0 -18 2 -26 4 -7 3 -23 1 -34 -4z"/>
<path d="M2967 3149 c8 -8 16 -8 30 0 16 9 14 10 -11 11 -22 0 -27 -3 -19 -11z"/>
<path d="M974 3119 c9 -13 16 -31 16 -41 0 -14 8 -18 34 -18 18 0 44 -8 57
-19 17 -13 34 -17 57 -13 31 4 32 6 17 22 -15 17 -125 71 -174 85 -23 7 -23 7
-7 -16z"/>
<path d="M2750 3126 c-56 -21 -135 -63 -148 -79 -21 -24 47 -29 77 -6 13 11
39 19 57 19 26 0 34 4 34 18 0 10 7 28 16 40 17 25 13 26 -36 8z"/>
<path d="M518 3027 l-47 -62 27 -14 c15 -7 36 -22 47 -32 20 -17 20 -17 22 77
1 52 1 94 0 94 -1 -1 -23 -29 -49 -63z"/>
<path d="M3193 2996 c2 -94 2 -94 22 -77 11 10 32 25 47 32 l27 14 -49 63 -48
62 1 -94z"/>
<path d="M591 2996 c-1 -29 2 -37 10 -29 8 8 8 19 1 40 -10 28 -10 28 -11 -11z"/>
<path d="M982 3018 c-18 -18 -15 -49 8 -86 19 -30 19 -35 5 -55 -32 -45 -22
-62 143 -228 l157 -160 34 12 c20 7 58 9 97 6 l63 -6 -9 25 c-14 35 -198 352
-229 394 -14 19 -31 44 -36 54 -13 25 -52 35 -87 23 -22 -7 -33 -5 -54 12 -30
23 -73 28 -92 9z"/>
<path d="M2686 3009 c-21 -17 -32 -19 -54 -12 -35 12 -74 2 -87 -23 -5 -10
-22 -35 -36 -54 -31 -42 -215 -359 -229 -394 l-9 -25 63 6 c39 3 77 1 97 -6
l34 -12 157 160 c165 166 175 183 143 228 -14 20 -14 25 5 55 35 57 22 98 -31
98 -14 0 -38 -9 -53 -21z"/>
<path d="M3156 3004 c-4 -15 -2 -32 3 -37 8 -8 11 0 11 26 0 44 -5 47 -14 11z"/>
<path d="M0 2718 l1 -223 29 77 c15 42 49 121 74 174 26 54 43 101 39 104 -5
4 -38 25 -75 48 l-68 42 0 -222z"/>
<path d="M3687 2895 c-38 -24 -70 -45 -73 -47 -2 -3 17 -49 42 -102 25 -54 59
-132 74 -174 l29 -77 1 223 c0 122 -1 222 -2 221 -2 0 -34 -20 -71 -44z"/>
<path d="M410 2913 c-53 -27 -76 -94 -50 -143 8 -15 5 -19 -25 -24 -48 -9 -85
-56 -85 -108 0 -85 100 -130 167 -74 21 18 33 21 51 15 13 -5 37 -4 60 4 68
22 91 112 42 165 -14 15 -18 29 -14 54 14 87 -68 150 -146 111z"/>
<path d="M3260 2913 c-44 -23 -62 -57 -56 -107 3 -28 0 -44 -14 -59 -49 -52
-25 -142 42 -164 23 -8 47 -9 60 -4 18 6 30 3 51 -15 67 -56 167 -11 167 74 0
51 -37 99 -84 108 -32 6 -33 7 -23 34 33 89 -60 175 -143 133z"/>
<path d="M940 2815 c-10 -12 -10 -15 4 -15 9 0 16 7 16 15 0 8 -2 15 -4 15 -2
0 -9 -7 -16 -15z"/>
<path d="M2800 2815 c0 -8 7 -15 16 -15 14 0 14 3 4 15 -7 8 -14 15 -16 15 -2
0 -4 -7 -4 -15z"/>
<path d="M620 2790 c0 -21 42 -123 66 -161 27 -43 28 -43 34 -19 4 17 0 34
-14 53 -13 18 -21 44 -21 71 0 39 -3 43 -32 53 -18 5 -33 7 -33 3z"/>
<path d="M3105 2785 c-27 -9 -30 -15 -31 -53 0 -26 -9 -54 -21 -70 -13 -18
-17 -35 -13 -52 6 -24 7 -24 34 19 27 42 69 149 64 161 -2 3 -16 1 -33 -5z"/>
<path d="M207 2672 c-55 -116 -120 -292 -111 -301 11 -11 33 30 63 118 18 52
55 138 81 192 37 72 46 98 36 102 -9 4 -31 -32 -69 -111z"/>
<path d="M3483 2783 c-9 -3 3 -36 36 -102 27 -54 64 -140 82 -192 30 -87 52
-129 63 -118 20 19 -157 421 -181 412z"/>
<path d="M732 2768 c-18 -18 -14 -70 7 -97 14 -18 17 -35 13 -63 -5 -42 17
-78 48 -78 10 0 20 -6 23 -13 5 -14 376 -230 413 -241 21 -6 21 -5 11 39 -7
31 -7 59 0 92 14 60 12 63 -135 199 -64 59 -129 121 -144 136 -30 31 -63 36
-94 13 -19 -13 -25 -12 -60 5 -44 23 -65 25 -82 8z"/>
<path d="M2946 2760 c-35 -17 -41 -18 -60 -5 -31 23 -64 18 -94 -13 -15 -15
-80 -77 -144 -136 -147 -136 -149 -139 -135 -199 7 -33 7 -61 0 -92 -10 -44
-10 -45 11 -39 37 11 408 227 413 241 3 7 13 13 23 13 31 0 53 36 48 78 -4 28
-1 45 13 63 21 27 25 79 7 97 -17 17 -38 15 -82 -8z"/>
<path d="M630 2649 c0 -9 -10 -31 -23 -50 l-23 -34 59 -1 c53 -2 57 0 44 15
-8 9 -24 32 -36 51 -11 19 -21 28 -21 19z"/>
<path d="M1627 2627 c-32 -33 -57 -92 -57 -137 0 -28 119 -238 155 -274 24
-24 29 -25 70 -15 37 9 45 15 45 35 0 12 5 26 10 29 6 4 10 61 10 139 0 131 0
132 -30 173 -33 44 -99 83 -143 83 -17 0 -39 -12 -60 -33z"/>
<path d="M2003 2639 c-24 -12 -56 -39 -73 -62 -30 -41 -30 -42 -30 -173 0 -78
4 -135 10 -139 6 -3 10 -17 10 -29 0 -20 8 -26 45 -35 41 -10 46 -9 70 15 36
36 155 246 155 274 0 76 -65 170 -118 170 -15 0 -46 -9 -69 -21z"/>
<path d="M3094 2609 l-31 -47 58 2 c51 1 56 3 44 16 -8 9 -20 29 -27 46 l-13
30 -31 -47z"/>
<path d="M204 2480 l-32 -79 33 24 c17 14 56 38 84 54 51 28 52 28 24 34 -15
3 -38 15 -50 26 -12 12 -23 21 -25 21 -2 0 -17 -36 -34 -80z"/>
<path d="M3495 2539 c-11 -11 -33 -23 -48 -26 -28 -6 -27 -6 24 -34 28 -16 67
-40 84 -54 l33 -24 -32 79 c-17 44 -33 80 -36 79 -3 0 -14 -9 -25 -20z"/>
<path d="M505 2523 c-46 -10 -47 -13 -16 -38 29 -25 31 -26 62 -10 18 10 43
15 58 12 24 -5 71 20 71 37 0 7 -144 6 -175 -1z"/>
<path d="M3080 2525 c0 -18 47 -43 71 -38 15 3 40 -2 58 -12 31 -15 33 -15 62
9 19 17 25 27 17 32 -15 10 -208 19 -208 9z"/>
<path d="M673 2476 c-20 -16 -40 -23 -70 -23 -82 0 -100 -54 -33 -101 28 -19
39 -34 40 -53 0 -38 34 -76 72 -82 18 -3 112 -28 208 -55 l175 -49 25 27 c29
31 100 70 127 70 16 0 16 2 -2 19 -31 30 -401 241 -423 241 -11 0 -22 7 -26
15 -8 23 -61 18 -93 -9z"/>
<path d="M2994 2485 c-4 -8 -15 -15 -26 -15 -22 0 -392 -211 -423 -241 -18
-17 -18 -19 -2 -19 27 0 98 -39 127 -70 l25 -27 175 49 c96 27 190 52 208 55
38 6 72 44 72 82 1 19 12 34 40 53 67 47 49 101 -33 101 -30 0 -50 7 -70 23
-32 27 -85 32 -93 9z"/>
<path d="M357 2470 c-14 -11 -28 -33 -32 -48 -5 -25 -9 -27 -39 -24 -49 6 -96
-37 -96 -88 0 -39 31 -90 54 -90 10 0 12 -12 9 -45 -5 -39 -2 -47 25 -75 54
-53 139 -31 157 42 5 20 11 23 49 20 38 -3 46 0 69 28 42 50 30 118 -24 142
-26 12 -28 16 -22 55 5 37 2 45 -25 72 -37 37 -86 41 -125 11z"/>
<path d="M3278 2459 c-27 -27 -30 -35 -25 -72 6 -39 4 -43 -22 -55 -54 -24
-66 -92 -24 -142 23 -28 31 -31 69 -28 38 3 44 0 49 -20 18 -73 103 -95 157
-42 27 28 30 36 25 75 -3 33 -1 45 9 45 23 0 54 51 54 90 0 51 -47 94 -96 88
-30 -3 -34 -1 -39 24 -16 69 -104 90 -157 37z"/>
<path d="M1375 2473 c-53 -11 -75 -26 -86 -60 -15 -47 -6 -128 18 -161 21 -28
243 -163 255 -156 4 3 17 0 29 -6 18 -10 26 -7 55 21 26 25 31 36 24 50 -6 10
-10 24 -10 32 0 8 -30 67 -66 130 -61 107 -69 117 -107 131 -53 19 -87 24
-112 19z"/>
<path d="M2335 2473 c-11 -2 -39 -11 -62 -19 -38 -14 -47 -24 -107 -131 -36
-63 -66 -122 -66 -130 0 -8 -4 -22 -10 -32 -7 -14 -2 -25 24 -50 29 -28 37
-31 55 -21 12 6 25 9 29 6 12 -7 234 128 255 156 44 59 30 187 -21 206 -38 14
-73 20 -97 15z"/>
<path d="M276 2435 c-19 -15 -19 -15 1 -15 11 0 23 7 27 15 7 19 -3 19 -28 0z"/>
<path d="M3456 2435 c4 -8 16 -15 27 -15 20 0 20 0 1 15 -25 19 -35 19 -28 0z"/>
<path d="M70 2288 c-34 -158 -53 -388 -32 -388 5 0 14 57 20 128 7 70 21 164
31 210 14 65 15 84 5 93 -9 7 -15 -3 -24 -43z"/>
<path d="M3664 2330 c-7 -7 -5 -37 7 -93 10 -45 24 -139 31 -209 15 -164 33
-171 25 -10 -6 98 -38 307 -50 318 -2 2 -8 -1 -13 -6z"/>
<path d="M126 2209 c-10 -99 -13 -94 49 -95 48 0 53 2 41 15 -8 9 -28 44 -45
79 -17 34 -33 62 -35 62 -2 0 -6 -28 -10 -61z"/>
<path d="M3591 2210 c-18 -36 -39 -72 -47 -81 -12 -13 -7 -15 41 -15 54 1 55
1 54 31 0 17 -4 53 -8 80 l-7 50 -33 -65z"/>
<path d="M206 2200 c10 -21 19 -30 22 -21 2 7 -6 23 -18 35 l-22 21 18 -35z"/>
<path d="M600 2220 c0 -5 5 -10 11 -10 5 0 7 5 4 10 -3 6 -8 10 -11 10 -2 0
-4 -4 -4 -10z"/>
<path d="M3145 2220 c-3 -5 -1 -10 4 -10 6 0 11 5 11 10 0 6 -2 10 -4 10 -3 0
-8 -4 -11 -10z"/>
<path d="M3546 2211 c-10 -11 -16 -26 -14 -33 3 -8 12 0 22 20 19 37 17 40 -8
13z"/>
<path d="M603 2165 c-17 -7 -34 -23 -38 -34 -5 -16 -15 -21 -43 -21 -95 0
-112 -85 -23 -118 15 -5 28 -22 35 -43 12 -37 63 -71 76 -50 5 9 14 9 34 1 29
-11 434 -14 473 -4 21 6 21 7 -13 54 -19 27 -38 65 -41 84 -3 20 -7 36 -8 36
-2 0 -79 20 -171 45 -93 25 -176 42 -185 40 -9 -3 -24 1 -32 10 -19 18 -23 18
-64 0z"/>
<path d="M1185 2161 c-22 -10 -51 -30 -64 -44 -20 -22 -23 -33 -19 -72 6 -51
44 -107 88 -130 22 -11 63 -15 163 -15 73 0 137 3 141 8 4 4 17 7 28 7 16 0
24 11 34 44 12 42 12 45 -14 71 -15 14 -75 54 -133 88 -118 69 -153 76 -224
43z"/>
<path d="M2350 2117 c-58 -34 -117 -74 -132 -88 -26 -25 -27 -27 -14 -70 10
-33 18 -44 34 -44 11 0 24 -3 28 -7 4 -5 68 -8 141 -8 100 0 141 4 163 15 44
23 82 79 88 130 4 39 1 50 -19 72 -33 35 -96 63 -144 63 -31 0 -63 -14 -145
-63z"/>
<path d="M3092 2164 c-8 -8 -21 -12 -30 -9 -10 2 -93 -15 -186 -40 -92 -25
-169 -45 -171 -45 -1 0 -5 -16 -8 -36 -3 -19 -22 -57 -41 -84 -34 -47 -34 -48
-13 -54 39 -10 444 -7 473 4 20 8 29 8 34 -1 13 -21 64 13 76 50 7 21 20 38
35 43 89 33 72 118 -23 118 -28 0 -38 5 -43 21 -4 11 -22 27 -41 35 -41 17
-46 17 -62 -2z"/>
<path d="M1775 2111 c-47 -21 -108 -86 -130 -137 -20 -48 -19 -50 8 -19 17 20
35 28 70 32 44 5 47 7 47 35 0 35 23 83 47 97 30 17 1 12 -42 -8z"/>
<path d="M1943 2120 c24 -15 47 -63 47 -98 0 -28 3 -30 47 -35 35 -4 53 -12
70 -32 27 -31 28 -29 8 19 -29 69 -99 132 -165 150 -21 6 -22 5 -7 -4z"/>
<path d="M1822 2090 c-26 -24 -36 -60 -27 -90 5 -16 11 -19 23 -14 22 11 102
11 124 0 13 -6 19 -2 23 17 21 81 -82 143 -143 87z"/>
<path d="M134 2080 c-64 -26 -84 -115 -38 -169 l26 -31 -26 -31 c-35 -41 -35
-96 -1 -137 51 -61 143 -46 172 26 11 29 24 42 49 51 81 29 82 153 0 182 -25
9 -38 22 -49 51 -21 53 -81 79 -133 58z"/>
<path d="M3542 2075 c-23 -10 -38 -27 -49 -53 -11 -29 -24 -42 -49 -51 -35
-13 -64 -53 -64 -91 0 -38 29 -78 64 -91 25 -9 38 -22 49 -51 29 -72 121 -87
172 -26 34 41 34 96 -1 137 l-26 31 26 31 c73 87 -19 210 -122 164z"/>
<path d="M356 2050 l-40 -5 46 -40 c60 -53 154 -105 145 -81 -4 10 -7 22 -7
27 0 5 -5 9 -11 9 -20 0 -71 43 -83 69 -10 23 -15 25 -50 21z"/>
<path d="M3360 2041 c0 -18 -67 -81 -86 -81 -8 0 -14 -4 -14 -9 0 -5 -3 -17
-7 -27 -9 -25 88 30 146 82 l46 41 -43 4 c-31 4 -42 1 -42 -10z"/>
<path d="M1821 1964 c-13 -9 -29 -32 -37 -50 -27 -64 24 -134 96 -134 45 0 78
23 96 66 27 64 -24 134 -96 134 -20 0 -46 -7 -59 -16z"/>
<path d="M1693 1958 c-12 -6 -29 -26 -38 -44 -15 -31 -15 -37 0 -68 19 -39 62
-61 101 -52 20 5 24 11 18 24 -14 32 -16 90 -4 112 10 18 9 24 -1 31 -18 11
-49 10 -76 -3z"/>
<path d="M1991 1961 c-10 -7 -11 -13 -1 -31 12 -22 10 -80 -4 -112 -6 -13 -2
-19 18 -24 39 -9 82 13 101 52 15 31 15 37 0 68 -22 46 -78 70 -114 47z"/>
<path d="M415 1879 l0 -48 25 16 c60 38 59 36 16 59 l-41 21 0 -48z"/>
<path d="M3303 1907 c-23 -12 -42 -24 -42 -27 0 -3 19 -14 42 -26 l42 -21 0
49 c0 26 0 48 0 47 0 0 -19 -10 -42 -22z"/>
<path d="M570 1857 c-14 -7 -30 -28 -36 -47 -7 -20 -21 -37 -35 -42 -88 -33
-72 -118 22 -118 28 0 38 -5 47 -24 6 -14 26 -29 46 -36 30 -10 38 -9 52 5 9
8 24 13 33 10 9 -2 92 15 185 40 92 25 169 45 171 45 1 0 5 16 8 36 3 19 22
57 41 84 34 47 34 48 13 54 -39 10 -444 7 -474 -5 -19 -7 -29 -7 -31 0 -5 14
-11 14 -42 -2z"/>
<path d="M2638 1863 c-15 -4 -12 -12 18 -53 19 -27 38 -65 41 -84 3 -20 7 -36
8 -36 2 0 79 -20 171 -45 93 -25 176 -42 185 -40 9 3 24 -2 33 -10 14 -14 22
-15 52 -5 20 7 40 22 46 36 9 19 19 24 47 24 94 0 110 85 22 118 -15 5 -28 22
-35 43 -12 37 -63 71 -76 50 -5 -9 -14 -9 -34 -1 -26 10 -442 13 -478 3z"/>
<path d="M30 1788 c0 -72 18 -213 40 -316 9 -40 15 -50 24 -43 10 9 9 28 -5
93 -10 46 -24 140 -31 211 -6 70 -15 127 -20 127 -4 0 -8 -33 -8 -72z"/>
<path d="M1184 1841 c-45 -27 -76 -76 -82 -127 -4 -37 -1 -49 19 -71 32 -35
95 -63 143 -63 30 0 64 14 145 62 58 34 118 74 133 88 26 26 26 29 14 71 -10
33 -18 44 -34 44 -11 0 -24 3 -28 8 -4 4 -68 7 -143 7 -116 0 -141 -3 -167
-19z"/>
<path d="M2266 1853 c-4 -5 -17 -8 -28 -8 -16 0 -24 -11 -34 -44 -12 -42 -12
-45 14 -71 15 -14 75 -54 133 -88 81 -48 115 -62 145 -62 48 0 111 28 143 63
20 22 23 33 19 72 -6 51 -44 107 -88 130 -22 11 -63 15 -163 15 -73 0 -137 -3
-141 -7z"/>
<path d="M3702 1733 c-7 -71 -21 -165 -31 -211 -14 -65 -15 -84 -5 -93 9 -7
15 3 24 43 34 158 53 388 32 388 -5 0 -14 -57 -20 -127z"/>
<path d="M444 1814 c-32 -19 -74 -50 -92 -67 l-33 -32 38 -5 c34 -4 39 -2 49
21 12 26 63 69 82 69 9 0 25 40 18 47 -1 2 -29 -13 -62 -33z"/>
<path d="M3253 1836 c4 -10 7 -22 7 -27 0 -5 6 -9 14 -9 19 0 86 -63 86 -81 0
-11 11 -14 42 -10 l43 4 -46 41 c-58 52 -155 107 -146 82z"/>
<path d="M1630 1827 c0 -20 37 -85 68 -119 35 -39 117 -86 129 -74 4 3 1 6 -5
6 -19 0 -52 62 -52 96 0 30 -2 32 -47 37 -35 4 -53 12 -70 32 -13 14 -23 24
-23 22z"/>
<path d="M2105 1803 c-15 -18 -34 -26 -68 -30 -45 -5 -47 -7 -47 -37 0 -34
-33 -96 -52 -96 -6 0 -9 -3 -5 -6 12 -12 94 35 129 74 32 35 74 111 66 117 -2
1 -12 -9 -23 -22z"/>
<path d="M1795 1757 c-14 -56 27 -107 85 -107 59 0 102 56 85 110 -5 16 -11
19 -23 14 -22 -11 -102 -11 -124 0 -13 6 -19 2 -23 -17z"/>
<path d="M278 1660 c-27 -28 -30 -36 -25 -75 3 -33 1 -45 -9 -45 -23 0 -54
-51 -54 -90 0 -51 47 -94 96 -88 30 3 34 1 39 -24 16 -69 104 -90 157 -37 27
27 30 35 25 72 -6 39 -4 43 22 55 54 24 66 92 24 142 -23 28 -31 31 -69 28
-38 -3 -44 0 -49 20 -18 73 -103 95 -157 42z"/>
<path d="M3355 1666 c-13 -13 -27 -35 -30 -48 -5 -20 -11 -23 -49 -20 -38 3
-46 0 -69 -28 -42 -50 -30 -118 24 -142 26 -12 28 -16 22 -55 -5 -37 -2 -45
25 -72 53 -53 141 -32 157 37 5 25 9 27 39 24 49 -6 96 37 96 88 0 39 -31 90
-54 90 -10 0 -12 12 -9 45 5 39 2 47 -25 75 -39 39 -92 41 -127 6z"/>
<path d="M1587 1669 c-9 -5 -20 -8 -25 -6 -12 8 -234 -127 -255 -155 -24 -33
-33 -114 -18 -161 20 -59 108 -78 198 -42 38 15 48 28 107 132 36 64 66 123
66 132 0 9 5 23 10 31 7 11 1 23 -22 47 -35 37 -36 37 -61 22z"/>
<path d="M2113 1648 c-24 -25 -30 -37 -23 -48 5 -8 10 -22 10 -31 0 -9 30 -68
66 -132 59 -104 69 -117 107 -132 90 -36 178 -17 198 42 15 47 6 128 -18 161
-21 29 -225 152 -258 157 -11 1 -27 6 -35 9 -10 4 -27 -5 -47 -26z"/>
<path d="M121 1615 c0 -16 4 -52 8 -80 l7 -50 33 65 c18 36 39 72 47 81 12 13
7 15 -41 15 -54 -1 -55 -1 -54 -31z"/>
<path d="M890 1598 c-96 -27 -190 -52 -208 -55 -38 -6 -72 -44 -72 -82 -1 -19
-12 -34 -40 -53 -67 -47 -49 -101 33 -101 30 0 50 -7 70 -23 32 -27 85 -32 93
-9 4 8 15 15 26 15 22 0 392 211 423 241 18 17 18 19 2 19 -27 0 -98 39 -127
70 l-25 27 -175 -49z"/>
<path d="M2680 1629 c-13 -23 -107 -79 -135 -79 -19 0 -19 0 0 -19 31 -30 401
-241 423 -241 11 0 22 -7 26 -15 8 -23 61 -18 93 9 20 16 40 23 70 23 82 0
100 54 33 101 -28 19 -39 34 -40 53 0 38 -34 76 -72 82 -18 3 -71 16 -118 30
-47 14 -127 37 -178 51 -90 24 -92 24 -102 5z"/>
<path d="M3544 1631 c8 -9 29 -45 47 -81 l33 -65 7 50 c4 28 8 64 8 80 1 30 0
30 -54 31 -48 0 -53 -2 -41 -15z"/>
<path d="M206 1560 l-18 -35 22 21 c12 12 20 28 18 35 -3 9 -12 0 -22 -21z"/>
<path d="M3530 1577 c0 -8 10 -22 21 -33 l22 -19 -17 33 c-18 34 -26 40 -26
19z"/>
<path d="M1722 1544 c-35 -39 -152 -249 -152 -274 0 -76 65 -170 117 -170 44
0 110 39 143 83 30 41 30 42 30 173 0 78 -4 135 -10 139 -5 3 -10 17 -10 29 0
20 -8 26 -44 35 -53 13 -46 15 -74 -15z"/>
<path d="M1958 1558 c-30 -8 -38 -15 -38 -33 0 -13 -4 -27 -10 -30 -6 -4 -10
-61 -10 -139 0 -131 0 -132 30 -173 33 -44 99 -83 143 -83 52 0 117 94 117
170 0 47 -161 303 -188 299 -4 -1 -24 -6 -44 -11z"/>
<path d="M600 1539 c0 -5 5 -7 10 -4 6 3 10 8 10 11 0 2 -4 4 -10 4 -5 0 -10
-5 -10 -11z"/>
<path d="M3145 1540 c3 -5 8 -10 11 -10 2 0 4 5 4 10 0 6 -5 10 -11 10 -5 0
-7 -4 -4 -10z"/>
<path d="M1230 1483 c-39 -14 -403 -228 -407 -240 -3 -7 -13 -13 -23 -13 -31
0 -53 -36 -48 -78 4 -28 1 -45 -13 -63 -21 -27 -25 -79 -7 -97 17 -17 38 -15
82 8 35 17 41 18 60 5 31 -23 64 -18 94 13 15 15 80 77 144 136 147 136 149
139 135 199 -7 33 -7 61 0 92 10 46 10 48 -17 38z"/>
<path d="M2513 1445 c7 -31 7 -59 0 -92 -14 -60 -12 -63 135 -199 64 -59 129
-121 144 -136 30 -31 63 -36 94 -13 19 13 25 12 60 -5 44 -23 65 -25 82 -8 18
18 14 70 -7 97 -14 18 -17 35 -13 63 5 42 -17 78 -48 78 -10 0 -20 6 -23 13
-5 14 -376 230 -413 241 -21 6 -21 5 -11 -39z"/>
<path d="M107 1338 c40 -137 149 -369 169 -361 10 4 0 31 -36 102 -26 54 -63
140 -81 192 -18 52 -37 100 -42 107 -21 27 -25 9 -10 -40z"/>
<path d="M3643 1378 c-5 -7 -24 -55 -42 -107 -18 -52 -55 -138 -81 -192 -36
-71 -46 -98 -36 -102 20 -8 129 224 169 361 15 49 11 67 -10 40z"/>
<path d="M202 1282 c17 -42 33 -79 34 -81 2 -1 13 7 26 19 13 12 36 24 51 27
28 6 27 6 -24 34 -28 16 -67 40 -85 54 l-33 25 31 -78z"/>
<path d="M3554 1335 c-17 -14 -54 -38 -83 -53 -51 -29 -52 -29 -24 -35 15 -3
38 -15 51 -27 13 -12 24 -20 26 -19 4 6 65 159 63 159 -1 -1 -16 -12 -33 -25z"/>
<path d="M276 1325 c25 -19 35 -19 28 0 -4 8 -16 15 -27 15 -20 0 -20 0 -1
-15z"/>
<path d="M3456 1325 c-7 -19 3 -19 28 0 19 15 19 15 -1 15 -11 0 -23 -7 -27
-15z"/>
<path d="M488 1275 c-19 -16 -24 -26 -16 -31 15 -10 208 -18 208 -9 0 18 -47
43 -71 38 -14 -3 -40 2 -57 11 -38 19 -31 20 -64 -9z"/>
<path d="M3206 1284 c-16 -9 -40 -14 -55 -11 -24 5 -71 -20 -71 -38 0 -10 193
-1 208 9 8 5 3 15 -17 32 -34 28 -28 27 -65 8z"/>
<path d="M1137 1111 c-164 -167 -174 -183 -142 -228 14 -20 14 -25 -5 -55 -35
-57 -22 -98 31 -98 14 0 38 9 53 21 21 17 32 19 54 12 35 -12 74 -2 87 23 5
10 22 35 36 54 31 41 215 359 228 393 9 23 9 23 -67 23 -43 -1 -86 2 -97 6
-17 7 -46 -18 -178 -151z"/>
<path d="M2430 1258 c-14 -5 -55 -7 -92 -5 l-67 6 9 -25 c14 -35 198 -352 229
-394 14 -19 31 -44 36 -54 13 -25 52 -35 87 -23 22 7 33 5 54 -12 15 -12 39
-21 53 -21 53 0 66 41 31 98 -19 30 -19 35 -5 55 32 45 22 61 -142 228 -87 87
-160 159 -163 158 -3 0 -16 -5 -30 -11z"/>
<path d="M0 1042 l0 -222 68 42 c37 23 70 44 75 48 4 3 -13 50 -39 104 -25 53
-59 132 -74 174 l-29 77 -1 -223z"/>
<path d="M3731 1193 c-12 -38 -45 -115 -72 -172 -27 -58 -46 -108 -42 -111 5
-4 38 -25 76 -48 l67 -42 0 220 c0 121 -1 220 -3 220 -1 0 -13 -30 -26 -67z"/>
<path d="M1513 1204 c-43 -62 -223 -383 -223 -398 0 -9 -9 -24 -20 -33 -27
-24 -25 -65 4 -92 20 -19 23 -30 19 -58 -8 -48 13 -83 49 -83 22 0 35 9 56 40
21 31 33 39 58 40 33 0 81 41 69 59 -3 6 1 23 9 38 9 16 36 102 60 192 l45
164 -26 20 c-14 12 -38 47 -53 80 l-27 60 -20 -29z"/>
<path d="M2201 1176 c-12 -31 -36 -67 -51 -80 l-29 -24 45 -163 c24 -90 51
-176 60 -192 8 -15 12 -32 9 -38 -12 -18 36 -59 69 -59 25 -1 37 -9 58 -40 21
-31 34 -40 56 -40 36 0 57 35 49 83 -4 28 -1 39 19 58 29 27 31 68 4 92 -11 9
-20 24 -20 33 0 16 -198 367 -229 405 -16 20 -17 20 -40 -35z"/>
<path d="M279 1191 c-57 -58 -24 -162 56 -177 31 -5 33 -8 24 -27 -15 -26 -5
-94 16 -117 10 -11 33 -24 51 -30 28 -10 40 -8 71 7 47 22 65 56 59 107 -3 28
0 44 14 59 49 52 25 142 -42 164 -23 8 -47 9 -60 4 -18 -6 -30 -3 -51 15 -42
35 -100 33 -138 -5z"/>
<path d="M3343 1196 c-21 -18 -33 -21 -51 -15 -13 5 -37 4 -60 -4 -67 -22 -91
-112 -42 -164 14 -15 17 -31 14 -59 -6 -51 12 -85 59 -107 66 -33 134 5 144
81 3 21 0 48 -6 59 -9 19 -7 22 24 27 48 9 85 56 85 108 0 85 -100 130 -167
74z"/>
<path d="M595 1180 c8 -9 20 -29 27 -46 l13 -30 31 47 31 47 -58 -2 c-51 -1
-56 -3 -44 -16z"/>
<path d="M3094 1151 l31 -47 13 30 c7 17 19 37 27 46 12 13 7 15 -44 16 l-58
2 31 -47z"/>
<path d="M686 1131 c-24 -38 -66 -140 -66 -161 0 -4 15 -2 33 3 29 10 32 14
32 53 0 27 8 53 21 71 14 19 18 36 14 53 -6 24 -7 24 -34 -19z"/>
<path d="M3038 1148 c-2 -13 6 -36 17 -51 12 -17 20 -44 20 -71 0 -39 3 -43
33 -53 17 -5 32 -7 32 -3 0 34 -78 200 -94 200 -3 0 -6 -10 -8 -22z"/>
<path d="M1811 1114 c-24 -18 -62 -39 -85 -46 -22 -6 -42 -12 -43 -13 -7 -4
-93 -342 -93 -362 0 -13 -4 -23 -10 -23 -24 0 -9 -54 25 -86 28 -26 35 -40 35
-72 0 -27 6 -45 21 -58 19 -17 23 -17 47 -3 15 8 33 28 41 46 9 21 23 33 42
37 16 3 37 14 47 24 18 18 19 39 21 306 1 157 1 286 -1 285 -2 0 -23 -16 -47
-35z"/>
<path d="M1901 865 c2 -268 3 -289 21 -307 10 -10 31 -21 47 -24 19 -4 33 -16
42 -37 8 -18 26 -38 41 -46 24 -14 28 -14 47 3 15 13 21 31 21 58 0 32 7 46
35 72 34 32 49 86 25 86 -5 0 -10 10 -10 23 0 20 -86 358 -93 362 -1 1 -20 7
-43 13 -23 7 -62 28 -88 48 l-47 36 2 -287z"/>
<path d="M630 932 c-18 -18 -30 -41 -30 -57 0 -31 26 -85 41 -85 5 0 3 -10 -5
-22 -25 -36 -20 -91 10 -122 31 -30 86 -35 122 -11 20 15 23 14 43 -3 43 -41
100 -34 139 15 26 33 22 85 -8 116 -19 18 -19 19 -1 54 47 93 -55 178 -138
116 -28 -20 -28 -20 -43 -1 -9 11 -33 22 -57 25 -37 5 -46 2 -73 -25z"/>
<path d="M930 956 c0 -2 7 -9 15 -16 12 -10 15 -10 15 4 0 9 -7 16 -15 16 -8
0 -15 -2 -15 -4z"/>
<path d="M2800 944 c0 -14 3 -14 15 -4 8 7 15 14 15 16 0 2 -7 4 -15 4 -8 0
-15 -7 -15 -16z"/>
<path d="M2865 951 c-53 -23 -73 -81 -46 -134 18 -35 18 -36 -1 -54 -30 -31
-34 -83 -8 -116 39 -49 96 -56 139 -15 20 17 23 18 43 3 36 -24 91 -19 122 11
30 31 35 86 10 122 -8 12 -10 22 -5 22 15 0 41 54 41 85 0 16 -12 39 -30 57
-27 27 -36 30 -73 25 -24 -3 -48 -14 -57 -25 -14 -18 -16 -18 -40 -1 -32 23
-69 31 -95 20z"/>
<path d="M295 940 c-12 -19 105 -184 229 -325 29 -32 36 -36 36 -20 -1 11 -34
61 -76 110 -41 50 -98 125 -126 168 -28 42 -53 77 -54 77 -2 0 -6 -5 -9 -10z"/>
<path d="M3402 873 c-28 -43 -85 -118 -126 -168 -42 -49 -75 -99 -76 -110 0
-16 7 -12 36 20 131 149 243 310 227 326 -6 6 -27 -18 -61 -68z"/>
<path d="M82 829 l-82 -50 0 -202 c1 -180 2 -199 14 -171 21 49 85 113 137
140 70 35 141 40 212 17 l57 -20 -25 31 c-63 76 -175 228 -196 265 -12 23 -25
41 -28 41 -3 0 -43 -23 -89 -51z"/>
<path d="M3561 839 c-21 -37 -133 -189 -196 -265 l-25 -31 57 20 c71 23 142
18 212 -17 52 -27 116 -91 137 -140 12 -28 13 -9 14 171 l0 202 -84 50 c-46
28 -86 51 -88 51 -2 0 -15 -18 -27 -41z"/>
<path d="M549 844 c-7 -8 -27 -23 -45 -32 l-33 -17 49 -63 48 -62 -1 95 c-1
52 -3 95 -3 95 -1 0 -7 -7 -15 -16z"/>
<path d="M3193 764 l-1 -94 48 62 49 63 -27 14 c-15 7 -36 22 -47 32 -20 17
-20 17 -22 -77z"/>
<path d="M591 765 c1 -40 1 -40 11 -12 7 21 7 32 -1 40 -8 8 -11 0 -10 -28z"/>
<path d="M3154 787 c-2 -7 0 -24 5 -38 9 -22 10 -21 10 14 1 37 -5 48 -15 24z"/>
<path d="M1081 720 c-13 -11 -38 -20 -57 -20 -26 0 -34 -4 -34 -18 0 -10 -7
-28 -16 -41 -16 -23 -16 -23 7 -16 50 15 159 68 175 86 16 18 16 19 -4 19 -11
0 -26 2 -34 5 -7 2 -24 -4 -37 -15z"/>
<path d="M2616 731 c-27 -6 -28 -7 -9 -23 19 -17 129 -71 172 -83 23 -7 23 -7
7 16 -9 13 -16 31 -16 41 0 14 -8 18 -34 18 -18 0 -45 9 -59 20 -14 11 -27 19
-29 19 -1 -1 -16 -4 -32 -8z"/>
<path d="M1146 664 c-35 -25 -43 -34 -28 -34 11 0 33 -11 49 -24 l28 -23 1 58
c1 33 1 59 0 58 -1 -1 -23 -16 -50 -35z"/>
<path d="M2564 639 l1 -58 21 20 c12 11 32 23 46 27 23 7 22 8 -23 38 l-46 31
1 -58z"/>
<path d="M1224 655 c-8 -31 13 -192 26 -200 5 -3 11 3 15 14 3 11 13 22 22 25
14 6 14 8 -2 26 -10 12 -20 42 -23 72 -3 29 -11 62 -18 72 -12 18 -13 17 -20
-9z"/>
<path d="M2513 658 c-6 -12 -14 -45 -16 -71 -3 -26 -13 -57 -22 -67 -16 -18
-16 -20 -2 -26 9 -3 19 -15 23 -26 10 -34 22 -7 35 84 9 57 10 94 3 108 l-10
22 -11 -24z"/>
<path d="M1535 620 c-8 -13 -1 -24 14 -19 6 3 7 10 2 18 -6 10 -10 10 -16 1z"/>
<path d="M2206 615 c-3 -9 0 -15 9 -15 16 0 20 16 6 24 -5 3 -11 -1 -15 -9z"/>
<path d="M760 610 c-12 -8 -9 -10 13 -10 16 0 26 4 22 10 -8 12 -16 12 -35 0z"/>
<path d="M2965 610 c-4 -6 6 -10 22 -10 22 0 25 2 13 10 -19 12 -27 12 -35 0z"/>
<path d="M1028 584 c-16 -8 -28 -19 -28 -24 0 -6 -19 -7 -45 -3 -55 7 -90 -13
-111 -64 -36 -85 64 -177 146 -133 15 8 19 5 24 -25 9 -46 56 -85 105 -85 92
0 140 110 76 172 -19 18 -21 26 -13 42 17 31 -7 93 -45 116 -38 24 -72 25
-109 4z"/>
<path d="M2623 580 c-38 -23 -62 -85 -45 -116 8 -16 6 -24 -13 -42 -43 -42
-35 -120 16 -156 58 -40 151 -1 165 69 5 30 9 33 24 25 82 -44 182 48 146 133
-21 51 -56 71 -111 64 -26 -4 -45 -3 -45 3 0 13 -55 40 -82 40 -13 0 -37 -9
-55 -20z"/>
<path d="M1446 554 c-14 -15 -26 -35 -26 -44 0 -15 -7 -17 -45 -13 -39 5 -47
2 -75 -25 -18 -19 -30 -41 -30 -57 0 -47 36 -94 73 -95 12 0 17 -8 17 -25 0
-34 25 -82 49 -95 48 -25 121 2 136 51 5 14 12 18 27 13 39 -12 88 5 108 39
11 18 20 42 20 54 0 28 -44 79 -75 87 -21 6 -25 12 -25 47 0 83 -95 121 -154
63z"/>
<path d="M2185 555 c-18 -17 -25 -35 -25 -64 0 -35 -4 -41 -25 -47 -31 -8 -75
-59 -75 -87 0 -12 9 -36 20 -54 20 -34 69 -51 108 -39 15 5 22 1 27 -13 15
-49 88 -76 136 -51 24 13 49 61 49 95 0 17 5 25 18 25 36 1 72 48 72 95 0 16
-12 38 -30 57 -28 27 -36 30 -75 25 -38 -4 -45 -2 -45 13 0 9 -12 29 -26 44
-36 35 -95 36 -129 1z"/>
<path d="M734 519 c36 -27 68 -49 71 -49 3 0 5 9 5 19 0 11 11 32 24 48 l23
28 -94 2 -94 2 65 -50z"/>
<path d="M2926 537 c13 -16 24 -37 24 -48 0 -10 2 -19 5 -19 3 0 35 22 71 49
l65 50 -94 -2 -94 -2 23 -28z"/>
<path d="M615 525 c144 -127 311 -243 325 -229 7 7 -24 33 -87 77 -54 36 -129
93 -167 127 -38 33 -79 60 -90 60 -18 0 -14 -6 19 -35z"/>
<path d="M3074 500 c-38 -34 -113 -91 -167 -127 -63 -44 -94 -70 -87 -77 11
-11 87 37 205 130 137 109 163 134 139 134 -11 0 -52 -27 -90 -60z"/>
<path d="M358 516 c25 -28 32 -46 32 -77 0 -36 2 -39 23 -34 29 8 69 -8 96
-36 29 -31 26 -14 -7 45 -30 55 -77 97 -136 121 l-40 17 32 -36z"/>
<path d="M3385 531 c-59 -27 -103 -68 -130 -122 -31 -59 -31 -70 -4 -40 27 28
67 44 96 36 21 -5 23 -2 23 34 0 31 7 49 31 76 17 19 29 35 28 35 -2 0 -22 -9
-44 -19z"/>
<path d="M174 526 c-64 -28 -116 -86 -145 -163 l-10 -27 25 27 c31 33 72 50
103 42 21 -5 23 -3 18 18 -7 28 7 69 35 97 23 23 17 25 -26 6z"/>
<path d="M3560 520 c28 -28 42 -69 35 -97 -5 -21 -3 -23 18 -18 31 8 72 -9
103 -42 l25 -27 -10 27 c-30 78 -82 136 -147 163 -44 19 -48 18 -24 -6z"/>
<path d="M219 501 c-21 -21 -29 -39 -29 -64 0 -18 2 -36 5 -39 3 -3 24 1 45 8
34 12 46 12 80 0 21 -7 42 -11 45 -8 3 3 5 21 5 39 0 46 -46 93 -90 93 -22 0
-41 -9 -61 -29z"/>
<path d="M1813 514 c-18 -8 -33 -19 -33 -26 0 -17 -51 -68 -67 -68 -10 0 -11
-5 -3 -19 5 -11 10 -30 10 -43 1 -21 5 -18 41 22 37 40 95 138 87 145 -2 1
-18 -4 -35 -11z"/>
<path d="M1910 524 c0 -18 55 -107 89 -144 36 -40 40 -43 41 -22 0 13 5 32 10
43 8 14 7 19 -3 19 -15 0 -62 47 -69 68 -3 13 -68 47 -68 36z"/>
<path d="M3419 501 c-21 -21 -29 -39 -29 -64 0 -18 2 -36 5 -39 3 -3 24 1 45
8 34 12 46 12 80 0 21 -7 42 -11 45 -8 3 3 5 21 5 39 0 46 -46 93 -90 93 -22
0 -41 -9 -61 -29z"/>
<path d="M1854 457 l-21 -42 47 0 47 0 -21 42 c-12 23 -23 42 -26 42 -3 0 -14
-19 -26 -42z"/>
<path d="M547 393 c27 -62 22 -159 -11 -226 -30 -61 -90 -120 -143 -139 -18
-7 -33 -14 -33 -18 0 -3 93 -4 207 -3 l207 2 48 82 c26 44 48 84 48 87 -1 4
-33 27 -72 51 -40 25 -105 72 -146 105 -41 34 -85 69 -98 79 l-24 18 17 -38z"/>
<path d="M3140 359 c-47 -38 -122 -94 -167 -122 -45 -29 -82 -55 -83 -59 0 -3
22 -43 48 -87 l48 -82 207 -2 c114 -1 207 0 207 3 0 4 -15 11 -33 18 -53 19
-113 78 -143 139 -33 67 -38 164 -11 226 9 20 15 37 14 37 -1 0 -40 -32 -87
-71z"/>
<path d="M234 379 c-27 -14 -54 -60 -54 -93 0 -14 13 -40 29 -58 39 -44 98
-46 138 -5 77 76 -15 203 -113 156z"/>
<path d="M3418 361 c-68 -61 -28 -166 63 -166 34 0 46 6 70 33 33 37 37 71 12
112 -33 56 -96 65 -145 21z"/>
<path d="M69 351 c-20 -20 -29 -39 -29 -61 0 -44 47 -90 93 -90 18 0 36 2 39
5 3 3 -1 24 -8 45 -12 34 -12 46 0 80 7 21 11 42 8 45 -3 3 -21 5 -39 5 -25 0
-43 -8 -64 -29z"/>
<path d="M386 372 c-2 -4 -1 -14 5 -22 12 -21 11 -104 -2 -117 -18 -18 -1 -33
36 -33 83 0 123 103 62 156 -28 24 -90 33 -101 16z"/>
<path d="M1828 365 c-15 -8 -32 -30 -39 -48 -8 -23 -22 -37 -50 -49 -29 -12
-44 -27 -55 -54 -19 -45 -12 -78 26 -115 38 -39 95 -40 139 -3 l31 26 31 -26
c44 -37 101 -36 139 3 38 37 45 70 26 115 -11 27 -26 42 -55 54 -28 12 -42 26
-51 49 -19 56 -86 78 -142 48z"/>
<path d="M3274 357 c-40 -35 -41 -99 -1 -133 45 -38 130 -29 97 11 -11 13 -11
86 1 125 8 28 -64 25 -97 -3z"/>
<path d="M3588 375 c-3 -3 1 -24 8 -45 12 -34 12 -46 0 -80 -7 -21 -11 -42 -8
-45 3 -3 21 -5 39 -5 46 0 93 46 93 90 0 44 -47 90 -93 90 -18 0 -36 -2 -39
-5z"/>
<path d="M1247 311 c-4 -17 -16 -40 -27 -51 l-21 -21 38 -15 c21 -9 57 -24 81
-34 l42 -19 -31 45 c-17 25 -41 64 -54 85 l-22 40 -6 -30z"/>
<path d="M2500 334 c0 -6 -22 -45 -49 -87 l-49 -75 41 18 c23 10 60 25 81 34
35 15 37 18 22 29 -9 7 -23 30 -31 52 -8 22 -14 35 -15 29z"/>
<path d="M1325 270 c9 -16 17 -30 19 -30 1 0 1 14 -2 30 -2 17 -10 30 -18 30
-12 0 -12 -5 1 -30z"/>
<path d="M2418 270 c-3 -16 -3 -30 -2 -30 2 0 10 14 19 30 13 25 13 30 1 30
-8 0 -16 -13 -18 -30z"/>
<path d="M977 275 c-4 -8 33 -31 101 -64 104 -50 303 -123 311 -115 11 10 -30
33 -104 58 -44 15 -130 52 -192 81 -79 38 -113 49 -116 40z"/>
<path d="M2670 236 c-58 -28 -144 -64 -190 -80 -79 -27 -120 -49 -109 -60 2
-2 49 11 104 30 130 44 317 135 307 150 -5 7 -42 -6 -112 -40z"/>
<path d="M502 210 c-30 -28 -52 -35 -95 -30 -14 1 -17 -3 -13 -18 8 -24 -9
-70 -36 -99 -29 -31 -13 -29 49 7 56 32 92 73 117 133 8 20 14 37 13 37 -1 0
-17 -14 -35 -30z"/>
<path d="M1550 219 c-11 -19 -10 -20 9 -10 27 15 36 31 17 31 -8 0 -20 -9 -26
-21z"/>
<path d="M2175 230 c3 -5 15 -15 26 -21 19 -10 20 -9 9 10 -6 12 -18 21 -26
21 -8 0 -12 -4 -9 -10z"/>
<path d="M3236 203 c25 -60 61 -101 117 -133 62 -36 78 -38 49 -7 -27 29 -44
75 -36 99 4 15 1 19 -13 18 -43 -5 -64 2 -98 31 l-35 31 16 -39z"/>
<path d="M30 224 c0 -6 15 -34 33 -64 32 -54 89 -102 137 -115 l25 -7 -22 23
c-28 31 -45 77 -37 102 5 17 3 19 -16 14 -27 -7 -68 8 -97 35 -13 12 -23 17
-23 12z"/>
<path d="M1634 219 c-3 -6 -38 -26 -76 -44 -76 -37 -74 -39 31 -50 l63 -7 -6
29 c-4 16 -2 42 3 56 10 27 -1 38 -15 16z"/>
<path d="M2111 203 c5 -14 7 -40 3 -56 l-6 -29 63 7 c105 11 107 13 31 50 -38
18 -73 38 -76 44 -14 22 -25 11 -15 -16z"/>
<path d="M3709 214 c-20 -25 -72 -44 -99 -37 -19 5 -21 3 -16 -14 8 -25 -9
-71 -37 -102 l-22 -23 25 7 c64 19 116 67 155 143 18 38 15 51 -6 26z"/>
<path d="M0 113 l0 -102 100 -3 c55 -2 100 -1 100 2 0 4 -15 11 -33 18 -51 18
-113 77 -141 134 l-26 52 0 -101z"/>
<path d="M3741 173 c-17 -47 -97 -127 -144 -144 -20 -7 -37 -15 -37 -19 0 -3
45 -4 100 -2 l100 3 0 100 c0 54 -1 99 -3 99 -2 0 -9 -17 -16 -37z"/>
<path d="M196 183 c-3 -3 -6 -21 -6 -39 0 -82 104 -122 157 -60 31 37 30 103
-2 98 -64 -12 -105 -13 -123 -3 -10 6 -22 7 -26 4z"/>
<path d="M3397 184 c-4 -4 -7 -22 -7 -40 0 -82 104 -122 157 -60 28 33 31 105
3 96 -23 -7 -113 -5 -131 3 -8 4 -18 4 -22 1z"/>
<path d="M862 89 c-23 -38 -42 -73 -42 -77 0 -4 92 -7 205 -7 113 0 205 2 205
5 0 3 -24 14 -52 24 -41 14 -237 104 -268 123 -3 2 -24 -29 -48 -68z"/>
<path d="M2785 124 c-33 -18 -104 -50 -157 -71 -54 -21 -98 -40 -98 -43 0 -3
92 -5 205 -5 113 0 205 3 205 7 0 11 -84 148 -90 147 -3 -1 -32 -16 -65 -35z"/>
<path d="M1428 99 c-7 -4 -10 -10 -8 -13 3 -2 54 -14 115 -26 131 -25 325 -38
325 -22 0 6 -30 13 -67 16 -119 11 -241 27 -297 40 -30 7 -60 9 -68 5z"/>
<path d="M2260 94 c-56 -13 -174 -29 -292 -40 -38 -3 -68 -10 -68 -16 0 -16
194 -3 328 23 61 12 112 25 112 29 0 15 -26 16 -80 4z"/>
</g>
</svg>
