<?xml version="1.0" standalone="no"?>
<!DOCTYPE svg PUBLIC "-//W3C//DTD SVG 20010904//EN"
 "http://www.w3.org/TR/2001/REC-SVG-20010904/DTD/svg10.dtd">
<svg version="1.0" xmlns="http://www.w3.org/2000/svg"
 width="420.000000pt" height="420.000000pt" viewBox="0 0 420.000000 420.000000"
 preserveAspectRatio="xMidYMid meet">
<metadata>
Created by potrace 1.11, written by Peter Selinger 2001-2013
</metadata>
<g transform="translate(0.000000,420.000000) scale(0.100000,-0.100000)"
fill="#000000" stroke="none">
<path d="M1945 4083 c-156 -13 -353 -53 -500 -103 -88 -29 -288 -120 -281
-127 1 -2 79 -24 172 -48 93 -25 202 -54 242 -65 l73 -21 32 29 c51 45 337
331 337 337 0 3 -8 4 -17 3 -10 -1 -36 -3 -58 -5z"/>
<path d="M2140 4081 c0 -3 80 -86 178 -184 l179 -179 194 52 c107 29 218 58
247 65 29 7 55 15 58 17 5 6 -191 95 -278 127 -127 46 -361 93 -515 105 -35 2
-63 1 -63 -3z"/>
<path d="M1907 3865 c-92 -91 -161 -168 -154 -170 24 -8 193 -53 224 -60 36
-7 34 -3 74 -177 12 -54 24 -96 26 -94 2 2 19 62 37 132 l32 129 130 34 c71
19 131 36 134 38 5 4 -322 333 -331 333 -4 0 -81 -74 -172 -165z"/>
<path d="M990 3753 c-202 -139 -383 -322 -521 -524 -22 -33 -34 -59 -27 -59
12 0 298 76 420 111 l67 19 14 53 c45 157 118 439 115 441 -1 2 -32 -17 -68
-41z"/>
<path d="M3116 3708 c14 -51 36 -133 50 -183 13 -49 32 -120 42 -157 l17 -68
50 -14 c46 -14 169 -47 358 -97 43 -11 81 -18 84 -16 15 16 -176 255 -298 372
-88 85 -229 197 -298 238 l-30 17 25 -92z"/>
<path d="M1121 3738 c-6 -24 -33 -126 -61 -228 -27 -101 -48 -185 -47 -187 2
-1 63 15 136 35 l134 37 93 -100 c52 -55 94 -96 94 -91 0 5 -16 66 -36 135
l-36 125 99 98 100 98 -51 14 c-69 20 -401 106 -408 106 -3 0 -11 -19 -17 -42z"/>
<path d="M2845 3738 c-82 -22 -181 -49 -219 -60 l-69 -20 100 -101 100 -102
-23 -75 c-12 -41 -29 -100 -38 -130 l-16 -55 98 98 99 99 119 -32 c65 -17 126
-33 135 -36 13 -3 7 30 -32 173 -27 98 -55 200 -61 228 -8 30 -19 51 -28 52
-8 1 -82 -16 -165 -39z"/>
<path d="M1576 3541 l-98 -98 51 -178 52 -178 119 -126 c143 -153 218 -226
223 -220 2 2 30 108 61 235 l57 230 -36 145 c-20 79 -40 160 -45 180 l-10 36
-122 32 c-68 18 -130 34 -138 36 -9 3 -55 -35 -114 -94z"/>
<path d="M2385 3614 c-49 -13 -110 -29 -135 -37 l-45 -13 -45 -179 -46 -180
58 -230 c32 -126 60 -233 61 -237 1 -4 78 71 171 168 l169 176 43 146 c67 232
71 201 -43 314 l-98 96 -90 -24z"/>
<path d="M1116 3275 c-65 -19 -122 -38 -126 -42 -9 -10 -70 -234 -70 -255 0
-8 58 -72 129 -141 l130 -125 83 -25 c288 -85 379 -109 384 -104 2 1 -26 106
-62 232 l-66 230 -128 133 c-70 72 -134 132 -142 131 -7 0 -67 -15 -132 -34z"/>
<path d="M2764 3176 l-128 -135 -38 -133 c-63 -219 -89 -320 -85 -325 3 -2
107 25 232 61 l228 65 81 78 c44 44 105 102 135 130 l53 50 -36 134 c-20 73
-38 134 -40 136 -5 5 -249 73 -263 73 -6 0 -69 -60 -139 -134z"/>
<path d="M800 3190 c-306 -83 -355 -98 -353 -106 1 -5 23 -88 49 -184 26 -96
51 -197 57 -223 l10 -49 101 101 101 100 134 -39 134 -39 -98 99 c-111 112
-105 83 -57 263 17 59 29 107 28 106 0 0 -48 -13 -106 -29z"/>
<path d="M3253 3202 c2 -10 19 -71 37 -137 l32 -120 -96 -92 c-53 -50 -96 -94
-96 -96 0 -3 26 3 58 13 31 10 89 27 127 38 l70 20 102 -100 101 -101 12 44
c16 64 55 209 86 322 15 53 25 99 23 100 -2 2 -58 18 -124 35 -66 17 -169 45
-228 61 -94 25 -108 27 -104 13z"/>
<path d="M346 3020 c-61 -125 -121 -288 -155 -425 -24 -96 -59 -385 -47 -385
14 0 364 364 361 374 -2 6 -31 115 -65 241 -33 127 -62 235 -64 240 -2 6 -15
-15 -30 -45z"/>
<path d="M3775 3048 c-5 -15 -36 -132 -91 -336 l-38 -143 180 -180 c98 -98
181 -179 184 -179 10 0 -9 193 -30 302 -31 164 -98 366 -165 499 -26 51 -33
57 -40 37z"/>
<path d="M2028 2858 l-48 -190 48 -50 47 -49 50 51 50 50 -44 178 c-24 97 -47
182 -50 189 -3 6 -27 -74 -53 -179z"/>
<path d="M2389 2788 l-135 -142 16 -60 c9 -33 22 -62 27 -63 6 -2 36 3 67 12
l56 16 28 97 c59 196 81 276 78 279 -1 2 -63 -61 -137 -139z"/>
<path d="M1630 2917 c0 -3 8 -33 19 -68 10 -35 33 -116 52 -179 18 -63 37
-118 42 -121 5 -3 34 -12 64 -19 65 -14 64 -14 83 67 l12 55 -129 132 c-121
124 -143 144 -143 133z"/>
<path d="M687 2650 l-98 -100 32 -122 c17 -68 35 -130 39 -138 5 -10 72 -31
187 -59 l178 -44 230 58 c127 31 232 59 234 61 2 2 -74 79 -169 171 l-172 167
-97 28 c-53 16 -134 39 -181 53 l-85 24 -98 -99z"/>
<path d="M3188 2696 l-177 -51 -177 -170 -177 -169 237 -60 237 -59 174 43
c95 23 177 45 183 49 5 3 25 65 44 138 l35 131 -101 100 -101 99 -177 -51z"/>
<path d="M1395 2505 c55 -54 119 -115 141 -137 l41 -40 63 13 c34 6 64 17 66
23 3 7 -4 38 -14 71 l-18 59 -164 48 c-91 26 -176 50 -190 54 -18 4 2 -21 75
-91z"/>
<path d="M2658 2546 l-176 -51 -20 -65 c-22 -74 -24 -72 61 -91 l58 -12 133
129 c125 121 147 146 129 143 -5 -1 -88 -25 -185 -53z"/>
<path d="M1957 2573 c-3 -4 -11 -35 -18 -68 l-12 -61 66 -114 67 -115 0 135 0
136 -49 48 c-27 26 -51 44 -54 39z"/>
<path d="M2141 2533 l-43 -48 -1 -133 c-1 -72 -1 -132 0 -132 1 0 31 51 68
114 l66 114 -17 66 c-9 36 -20 66 -23 66 -4 0 -27 -21 -50 -47z"/>
<path d="M358 2315 l-165 -166 164 -165 c89 -91 167 -163 172 -160 5 4 12 21
16 39 9 43 56 211 60 215 2 2 61 19 132 37 70 18 121 36 113 39 -8 3 -66 18
-129 35 -131 33 -117 18 -157 175 -14 55 -30 105 -34 109 -4 5 -82 -66 -172
-158z"/>
<path d="M3590 2353 c-18 -71 -37 -131 -42 -134 -4 -3 -62 -18 -128 -34 -66
-16 -120 -32 -120 -35 0 -3 54 -19 120 -35 66 -16 124 -31 128 -34 5 -3 23
-62 41 -131 18 -68 34 -127 37 -129 3 -3 80 70 172 162 l167 167 -165 165
c-91 91 -167 165 -171 165 -3 0 -21 -57 -39 -127z"/>
<path d="M1760 2464 c0 -5 9 -36 19 -68 18 -60 31 -74 101 -113 19 -11 62 -35
94 -53 33 -19 57 -30 54 -24 -3 5 -33 57 -67 116 l-63 108 -56 16 c-32 9 -63
19 -69 21 -7 3 -13 1 -13 -3z"/>
<path d="M2320 2449 l-65 -21 -63 -110 c-34 -61 -61 -112 -60 -114 3 -3 212
117 223 128 10 9 44 138 37 137 -4 0 -36 -9 -72 -20z"/>
<path d="M1697 2281 l-58 -17 51 -47 52 -48 129 3 130 3 -106 63 c-58 34 -113
62 -123 61 -9 0 -43 -8 -75 -18z"/>
<path d="M2300 2259 c-36 -21 -85 -49 -109 -61 l-44 -23 134 -3 133 -3 49 49
49 49 -66 17 c-36 9 -69 16 -73 15 -4 0 -37 -18 -73 -40z"/>
<path d="M1380 2203 c-96 -24 -182 -46 -190 -49 -8 -3 71 -27 175 -54 l190
-48 50 49 50 49 -50 49 -50 48 -175 -44z"/>
<path d="M2545 2195 l-50 -45 52 -48 53 -48 184 45 c102 25 182 49 178 53 -8
7 -332 88 -353 88 -8 0 -37 -20 -64 -45z"/>
<path d="M1694 2086 l-58 -53 72 -18 72 -17 98 56 c151 86 151 81 3 83 l-129
2 -58 -53z"/>
<path d="M2151 2126 c2 -2 38 -23 79 -46 41 -23 90 -51 109 -62 30 -17 40 -18
85 -8 96 22 93 17 40 71 l-48 49 -135 0 c-74 0 -132 -2 -130 -4z"/>
<path d="M935 2092 c-33 -9 -107 -28 -165 -42 l-105 -27 -13 -39 c-7 -21 -24
-81 -37 -133 -19 -76 -22 -98 -12 -110 25 -33 163 -173 177 -180 9 -5 82 11
191 43 l176 51 173 168 c95 92 171 169 169 171 -7 7 -458 116 -476 115 -10 0
-45 -8 -78 -17z"/>
<path d="M2882 2051 l-222 -56 117 -115 c246 -240 231 -227 313 -249 41 -11
120 -34 175 -50 l100 -29 101 100 101 100 -35 131 c-19 73 -36 134 -38 136 -7
8 -349 91 -369 90 -11 -1 -120 -27 -243 -58z"/>
<path d="M1913 2037 l-112 -62 -21 -69 c-12 -37 -20 -70 -18 -72 2 -2 34 6 70
16 l66 20 53 93 c29 50 59 102 67 115 8 12 13 22 11 22 -2 0 -54 -28 -116 -63z"/>
<path d="M2130 2097 c0 -9 111 -199 126 -218 8 -8 37 -21 66 -28 29 -8 58 -16
65 -18 8 -3 6 17 -7 64 -11 37 -20 69 -20 70 0 1 -35 21 -77 46 -43 25 -95 55
-115 67 -21 12 -38 20 -38 17z"/>
<path d="M145 2019 c25 -276 94 -530 203 -744 l25 -50 28 100 c35 128 97 365
101 387 2 10 -62 83 -169 191 -94 96 -177 178 -183 182 -9 6 -11 -10 -5 -66z"/>
<path d="M3826 1911 l-180 -180 38 -143 c79 -295 92 -339 101 -341 16 -2 108
217 148 348 19 66 43 163 52 215 18 105 34 280 25 280 -3 0 -86 -81 -184 -179z"/>
<path d="M2020 2017 c-19 -33 -49 -84 -66 -112 l-31 -52 17 -62 c10 -34 19
-64 22 -66 2 -3 25 17 51 43 l48 48 -3 131 -3 130 -35 -60z"/>
<path d="M2090 1950 l0 -131 46 -49 c26 -28 50 -50 54 -50 4 0 15 31 25 68
l16 68 -66 112 c-36 62 -68 112 -70 112 -3 0 -5 -59 -5 -130z"/>
<path d="M1435 1835 c-77 -74 -136 -135 -132 -135 5 0 55 13 110 30 56 16 138
40 182 53 l80 23 17 59 c10 32 17 63 15 69 -3 9 -95 35 -122 35 -5 0 -73 -60
-150 -134z"/>
<path d="M2496 1954 c-26 -7 -50 -14 -51 -16 -1 -2 6 -32 17 -68 l20 -65 181
-52 c100 -28 183 -50 185 -48 1 1 -56 60 -128 131 -81 79 -140 130 -153 130
-12 1 -44 -4 -71 -12z"/>
<path d="M1786 1764 c-26 -7 -49 -14 -50 -16 -1 -2 -17 -55 -36 -118 -18 -63
-41 -144 -51 -179 -11 -35 -19 -67 -19 -72 0 -4 60 53 133 128 142 147 141
144 118 231 -13 47 -16 48 -95 26z"/>
<path d="M2285 1768 c-2 -7 -10 -36 -18 -64 l-14 -51 139 -144 c77 -79 137
-135 134 -124 -3 11 -16 58 -30 105 -14 47 -37 124 -51 172 l-25 87 -54 15
c-65 19 -75 20 -81 4z"/>
<path d="M2044 1698 c-69 -76 -68 -52 -15 -263 47 -186 49 -189 59 -150 6 22
28 109 49 192 l38 153 -50 50 -51 50 -30 -32z"/>
<path d="M1407 1655 c-153 -44 -226 -70 -245 -86 -96 -86 -242 -235 -242 -248
0 -37 68 -255 81 -262 8 -4 69 -22 136 -40 l122 -32 130 134 129 134 63 220
c34 121 64 226 67 233 6 18 -3 16 -241 -53z"/>
<path d="M2513 1694 c4 -16 15 -58 25 -94 11 -36 37 -127 58 -204 l39 -139
131 -135 131 -136 133 37 c73 20 134 38 136 40 2 2 20 63 40 137 l37 133 -49
45 c-27 25 -88 83 -135 129 l-85 83 -160 46 c-87 25 -181 52 -209 60 -27 7
-61 17 -74 20 -22 7 -24 5 -18 -22z"/>
<path d="M553 1623 c-6 -26 -31 -127 -57 -223 -26 -96 -48 -179 -49 -184 -2
-11 6 -13 243 -77 107 -28 200 -54 207 -56 8 -3 6 17 -8 64 -10 37 -27 99 -36
136 l-17 68 98 98 98 98 -134 -38 -133 -39 -101 101 -101 101 -10 -49z"/>
<path d="M3486 1571 l-98 -99 -87 24 c-47 13 -105 30 -128 38 -24 8 -43 12
-43 10 0 -3 43 -47 96 -97 l96 -92 -32 -120 c-18 -66 -35 -128 -37 -137 -4
-14 9 -13 104 13 59 16 162 43 228 60 66 18 122 33 124 35 2 2 -8 47 -23 101
-15 54 -42 156 -61 227 -19 71 -36 131 -38 132 -2 2 -47 -41 -101 -95z"/>
<path d="M1747 1388 l-165 -172 -52 -180 -52 -179 100 -99 99 -99 134 37 c74
20 135 38 137 39 2 2 24 83 48 181 l45 178 -58 233 c-32 128 -61 233 -64 233
-4 0 -81 -77 -172 -172z"/>
<path d="M2200 1433 c-18 -71 -44 -175 -59 -233 l-27 -105 45 -180 c42 -165
48 -180 71 -187 14 -5 74 -22 135 -38 l109 -30 98 97 c54 54 98 105 98 114 0
14 -37 148 -85 304 -14 43 -38 73 -179 218 -90 92 -166 167 -168 167 -3 0 -20
-57 -38 -127z"/>
<path d="M471 1068 c92 -137 227 -288 348 -389 99 -83 241 -184 241 -171 0 7
-46 180 -101 381 -15 57 -34 108 -40 112 -7 4 -67 22 -133 40 -67 17 -169 45
-229 60 -59 16 -112 29 -118 29 -5 0 9 -28 32 -62z"/>
<path d="M3510 1078 c-102 -27 -207 -56 -235 -64 l-50 -14 -17 -68 c-10 -37
-29 -107 -42 -157 -14 -49 -36 -132 -50 -183 l-25 -92 30 17 c87 51 252 188
352 293 95 99 233 273 245 310 5 15 -10 12 -208 -42z"/>
<path d="M1374 1002 l-91 -96 -134 36 c-74 20 -135 35 -136 34 -1 -1 18 -76
43 -166 24 -91 51 -193 60 -228 17 -63 17 -63 48 -56 62 13 407 105 420 112 4
2 -35 48 -89 102 l-97 97 37 127 c20 70 35 129 33 131 -2 2 -44 -40 -94 -93z"/>
<path d="M2695 1055 c8 -27 25 -87 38 -132 l24 -83 -99 -97 c-69 -69 -94 -99
-85 -105 8 -4 74 -23 148 -43 74 -19 168 -44 209 -55 41 -11 80 -18 86 -16 7
3 15 20 19 38 4 18 20 80 36 138 79 288 78 281 60 276 -178 -50 -244 -67 -253
-64 -5 2 -53 46 -104 98 l-94 95 15 -50z"/>
<path d="M2056 862 c-41 -179 -45 -190 -80 -197 -31 -7 -199 -52 -223 -60 -12
-4 309 -335 324 -335 11 0 338 328 333 333 -3 2 -63 19 -135 38 l-129 34 -32
128 c-18 71 -34 131 -36 133 -3 2 -12 -31 -22 -74z"/>
<path d="M1550 554 c-47 -13 -146 -40 -220 -60 -192 -51 -185 -43 -87 -91 183
-91 446 -162 667 -182 57 -6 106 -9 107 -7 6 6 -360 366 -371 365 -6 -1 -49
-12 -96 -25z"/>
<path d="M2310 395 l-185 -186 70 6 c267 23 502 84 710 183 l100 48 -65 17
c-36 9 -148 39 -250 67 -102 27 -187 50 -190 50 -3 0 -88 -83 -190 -185z"/>
</g>
</svg>
